<?xml version="1.0" encoding="utf-8"?>
<!-- Generator: Adobe Illustrator 16.0.0, SVG Export Plug-In . SVG Version: 6.00 Build 0)  -->
<!DOCTYPE svg PUBLIC "-//W3C//DTD SVG 1.1//EN" "http://www.w3.org/Graphics/SVG/1.1/DTD/svg11.dtd">
<svg version="1.1" id="Layer_1" xmlns="http://www.w3.org/2000/svg" xmlns:xlink="http://www.w3.org/1999/xlink" x="0px" y="0px"
	 width="65px" height="33.5px" viewBox="0 0 65 33.5" enable-background="new 0 0 65 33.5" xml:space="preserve">
<g>
	<path fill="#F15A29" d="M53.5,10.5c-1.492,0-2.915,0.295-4.225,0.814L44.618,2h3.632c0.553,0,1-0.447,1-1s-0.447-1-1-1H43
		c-0.347,0-0.668,0.18-0.851,0.475s-0.199,0.663-0.044,0.973l1.901,3.803H27.25H22h-0.5V2.625h4.25c0.553,0,1-0.447,1-1
		s-0.447-1-1-1H20.5h-2.334c-0.553,0-1,0.447-1,1s0.447,1,1,1H19.5V5.25h-9c-0.553,0-1,0.447-1,1s0.447,1,1,1h7.567l-2.156,4.133
		C14.552,10.816,13.062,10.5,11.5,10.5C5.159,10.5,0,15.659,0,22s5.159,11.5,11.5,11.5c6.003,0,10.939-4.627,11.449-10.5h9.537
		c0.005,0,0.01,0,0.015,0c0.184,0,0.37-0.051,0.536-0.156c0.014-0.009,0.027-0.019,0.041-0.027c0.086-0.062,0.16-0.134,0.221-0.215
		L45.17,7.576l2.319,4.639C44.203,14.241,42,17.864,42,22c0,6.341,5.159,11.5,11.5,11.5S65,28.341,65,22S59.841,10.5,53.5,10.5z
		 M14.979,13.169l-4.366,8.368c-0.161,0.311-0.149,0.683,0.031,0.981C10.826,22.817,11.15,23,11.5,23h9.446
		c-0.502,4.77-4.546,8.5-9.446,8.5C6.262,31.5,2,27.238,2,22s4.262-9.5,9.5-9.5C12.729,12.5,13.9,12.742,14.979,13.169z M13.149,21
		l3.604-6.908c2.295,1.529,3.89,4.028,4.192,6.908H13.149z M19.913,7.25H20.5h0.965L30.632,21h-7.683
		c-0.316-3.647-2.341-6.807-5.27-8.683l2.207-4.229C20.028,7.815,20.021,7.514,19.913,7.25z M42.879,7.25L32.568,20.3l-8.7-13.05
		h3.382H42.879z M63,22c0,5.238-4.262,9.5-9.5,9.5S44,27.238,44,22c0-3.354,1.753-6.302,4.386-7.993l4.22,8.44
		C52.781,22.798,53.134,23,53.501,23c0.15,0,0.303-0.034,0.446-0.105c0.494-0.247,0.694-0.848,0.447-1.342l-4.22-8.44
		c1.036-0.389,2.154-0.612,3.325-0.612C58.738,12.5,63,16.762,63,22z"/>
</g>
</svg>
