<?xml version="1.0" encoding="utf-8"?>
<!-- Generator: Adobe Illustrator 16.0.0, SVG Export Plug-In . SVG Version: 6.00 Build 0)  -->
<!DOCTYPE svg PUBLIC "-//W3C//DTD SVG 1.1//EN" "http://www.w3.org/Graphics/SVG/1.1/DTD/svg11.dtd">
<svg version="1.1" id="Layer_1" xmlns="http://www.w3.org/2000/svg" xmlns:xlink="http://www.w3.org/1999/xlink" x="0px" y="0px"
	 width="1613.707px" height="170.173px" viewBox="0 0 1613.707 170.173" enable-background="new 0 0 1613.707 170.173"
	 xml:space="preserve">
<path fill="none" stroke="#CCCCCC" stroke-width="1.724" d="M206.908,3.77c0,0.952-0.771,1.724-1.724,1.724H97.863
	c-0.952,0-1.724-0.772-1.724-1.724l0,0c0-0.952,0.771-1.724,1.724-1.724h107.321C206.137,2.045,206.908,2.817,206.908,3.77
	L206.908,3.77z"/>
<rect x="98.079" y="5.062" fill="none" stroke="#CCCCCC" stroke-width="1.724" width="106.891" height="164.248"/>
<rect x="107.714" y="18.732" fill="none" stroke="#CCCCCC" stroke-width="1.293" width="19.826" height="34.911"/>
<line fill="none" stroke="#CCCCCC" stroke-width="1.293" x1="109.868" y1="18.391" x2="109.868" y2="53.303"/>
<line fill="none" stroke="#CCCCCC" stroke-width="1.293" x1="117.626" y1="18.391" x2="117.626" y2="53.303"/>
<line fill="none" stroke="#CCCCCC" stroke-width="1.293" x1="117.626" y1="18.391" x2="117.626" y2="53.303"/>
<line fill="none" stroke="#CCCCCC" stroke-width="1.293" x1="125.385" y1="18.391" x2="125.385" y2="53.303"/>
<g>
	<line fill="none" stroke="#CCCCCC" stroke-width="1.2503" x1="109.851" y1="23.796" x2="125.367" y2="23.796"/>
	<line fill="none" stroke="#CCCCCC" stroke-width="1.2503" x1="109.851" y1="28.754" x2="125.367" y2="28.754"/>
	<line fill="none" stroke="#CCCCCC" stroke-width="1.2503" x1="109.886" y1="33.71" x2="125.403" y2="33.71"/>
	<line fill="none" stroke="#CCCCCC" stroke-width="1.2503" x1="109.886" y1="38.666" x2="125.403" y2="38.666"/>
	<line fill="none" stroke="#CCCCCC" stroke-width="1.2503" x1="109.886" y1="43.623" x2="125.403" y2="43.623"/>
	<line fill="none" stroke="#CCCCCC" stroke-width="1.2503" x1="109.886" y1="48.58" x2="125.403" y2="48.58"/>
</g>
<rect x="141.889" y="18.732" fill="none" stroke="#CCCCCC" stroke-width="1.293" width="19.827" height="34.911"/>
<line fill="none" stroke="#CCCCCC" stroke-width="1.293" x1="144.043" y1="18.391" x2="144.043" y2="53.303"/>
<line fill="none" stroke="#CCCCCC" stroke-width="1.293" x1="151.802" y1="18.391" x2="151.802" y2="53.303"/>
<line fill="none" stroke="#CCCCCC" stroke-width="1.293" x1="151.802" y1="18.391" x2="151.802" y2="53.303"/>
<line fill="none" stroke="#CCCCCC" stroke-width="1.293" x1="159.56" y1="18.391" x2="159.56" y2="53.303"/>
<g>
	<line fill="none" stroke="#CCCCCC" stroke-width="1.2503" x1="144.026" y1="23.796" x2="159.542" y2="23.796"/>
	<line fill="none" stroke="#CCCCCC" stroke-width="1.2503" x1="144.026" y1="28.754" x2="159.542" y2="28.754"/>
	<line fill="none" stroke="#CCCCCC" stroke-width="1.2503" x1="144.062" y1="33.71" x2="159.578" y2="33.71"/>
	<line fill="none" stroke="#CCCCCC" stroke-width="1.2503" x1="144.062" y1="38.666" x2="159.578" y2="38.666"/>
	<line fill="none" stroke="#CCCCCC" stroke-width="1.2503" x1="144.062" y1="43.623" x2="159.578" y2="43.623"/>
	<line fill="none" stroke="#CCCCCC" stroke-width="1.2503" x1="144.062" y1="48.58" x2="159.578" y2="48.58"/>
</g>
<rect x="175.507" y="18.732" fill="none" stroke="#CCCCCC" stroke-width="1.293" width="19.827" height="34.911"/>
<line fill="none" stroke="#CCCCCC" stroke-width="1.293" x1="177.663" y1="18.391" x2="177.663" y2="53.303"/>
<line fill="none" stroke="#CCCCCC" stroke-width="1.293" x1="185.421" y1="18.391" x2="185.421" y2="53.303"/>
<line fill="none" stroke="#CCCCCC" stroke-width="1.293" x1="185.421" y1="18.391" x2="185.421" y2="53.303"/>
<line fill="none" stroke="#CCCCCC" stroke-width="1.293" x1="193.18" y1="18.391" x2="193.18" y2="53.303"/>
<g>
	<line fill="none" stroke="#CCCCCC" stroke-width="1.2503" x1="177.645" y1="23.796" x2="193.162" y2="23.796"/>
	<line fill="none" stroke="#CCCCCC" stroke-width="1.2503" x1="177.645" y1="28.754" x2="193.162" y2="28.754"/>
	<line fill="none" stroke="#CCCCCC" stroke-width="1.2503" x1="177.68" y1="33.71" x2="193.196" y2="33.71"/>
	<line fill="none" stroke="#CCCCCC" stroke-width="1.2503" x1="177.68" y1="38.666" x2="193.196" y2="38.666"/>
	<line fill="none" stroke="#CCCCCC" stroke-width="1.2503" x1="177.68" y1="43.623" x2="193.196" y2="43.623"/>
	<line fill="none" stroke="#CCCCCC" stroke-width="1.2503" x1="177.68" y1="48.58" x2="193.196" y2="48.58"/>
</g>
<rect x="107.714" y="67.885" fill="none" stroke="#CCCCCC" stroke-width="1.293" width="19.826" height="34.912"/>
<line fill="none" stroke="#CCCCCC" stroke-width="1.293" x1="109.868" y1="67.544" x2="109.868" y2="102.456"/>
<line fill="none" stroke="#CCCCCC" stroke-width="1.293" x1="117.626" y1="67.544" x2="117.626" y2="102.456"/>
<line fill="none" stroke="#CCCCCC" stroke-width="1.293" x1="117.626" y1="67.544" x2="117.626" y2="102.456"/>
<line fill="none" stroke="#CCCCCC" stroke-width="1.293" x1="125.385" y1="67.544" x2="125.385" y2="102.456"/>
<g>
	<line fill="none" stroke="#CCCCCC" stroke-width="1.2503" x1="109.851" y1="72.949" x2="125.367" y2="72.949"/>
	<line fill="none" stroke="#CCCCCC" stroke-width="1.2503" x1="109.851" y1="77.906" x2="125.367" y2="77.906"/>
	<line fill="none" stroke="#CCCCCC" stroke-width="1.2503" x1="109.886" y1="82.863" x2="125.403" y2="82.863"/>
	<line fill="none" stroke="#CCCCCC" stroke-width="1.2503" x1="109.886" y1="87.819" x2="125.403" y2="87.819"/>
	<line fill="none" stroke="#CCCCCC" stroke-width="1.2503" x1="109.886" y1="92.776" x2="125.403" y2="92.776"/>
	<line fill="none" stroke="#CCCCCC" stroke-width="1.2503" x1="109.886" y1="97.733" x2="125.403" y2="97.733"/>
</g>
<rect x="141.889" y="67.885" fill="none" stroke="#CCCCCC" stroke-width="1.293" width="19.827" height="34.912"/>
<line fill="none" stroke="#CCCCCC" stroke-width="1.293" x1="144.043" y1="67.544" x2="144.043" y2="102.456"/>
<line fill="none" stroke="#CCCCCC" stroke-width="1.293" x1="151.802" y1="67.544" x2="151.802" y2="102.456"/>
<line fill="none" stroke="#CCCCCC" stroke-width="1.293" x1="151.802" y1="67.544" x2="151.802" y2="102.456"/>
<line fill="none" stroke="#CCCCCC" stroke-width="1.293" x1="159.56" y1="67.544" x2="159.56" y2="102.456"/>
<g>
	<line fill="none" stroke="#CCCCCC" stroke-width="1.2503" x1="144.026" y1="72.949" x2="159.542" y2="72.949"/>
	<line fill="none" stroke="#CCCCCC" stroke-width="1.2503" x1="144.026" y1="77.906" x2="159.542" y2="77.906"/>
	<line fill="none" stroke="#CCCCCC" stroke-width="1.2503" x1="144.062" y1="82.863" x2="159.578" y2="82.863"/>
	<line fill="none" stroke="#CCCCCC" stroke-width="1.2503" x1="144.062" y1="87.819" x2="159.578" y2="87.819"/>
	<line fill="none" stroke="#CCCCCC" stroke-width="1.2503" x1="144.062" y1="92.776" x2="159.578" y2="92.776"/>
	<line fill="none" stroke="#CCCCCC" stroke-width="1.2503" x1="144.062" y1="97.733" x2="159.578" y2="97.733"/>
</g>
<rect x="175.507" y="67.885" fill="none" stroke="#CCCCCC" stroke-width="1.293" width="19.827" height="34.912"/>
<line fill="none" stroke="#CCCCCC" stroke-width="1.293" x1="177.663" y1="67.544" x2="177.663" y2="102.456"/>
<line fill="none" stroke="#CCCCCC" stroke-width="1.293" x1="185.421" y1="67.544" x2="185.421" y2="102.456"/>
<line fill="none" stroke="#CCCCCC" stroke-width="1.293" x1="185.421" y1="67.544" x2="185.421" y2="102.456"/>
<line fill="none" stroke="#CCCCCC" stroke-width="1.293" x1="193.18" y1="67.544" x2="193.18" y2="102.456"/>
<g>
	<line fill="none" stroke="#CCCCCC" stroke-width="1.2503" x1="177.645" y1="72.949" x2="193.162" y2="72.949"/>
	<line fill="none" stroke="#CCCCCC" stroke-width="1.2503" x1="177.645" y1="77.906" x2="193.162" y2="77.906"/>
	<line fill="none" stroke="#CCCCCC" stroke-width="1.2503" x1="177.68" y1="82.863" x2="193.196" y2="82.863"/>
	<line fill="none" stroke="#CCCCCC" stroke-width="1.2503" x1="177.68" y1="87.819" x2="193.196" y2="87.819"/>
	<line fill="none" stroke="#CCCCCC" stroke-width="1.2503" x1="177.68" y1="92.776" x2="193.196" y2="92.776"/>
	<line fill="none" stroke="#CCCCCC" stroke-width="1.2503" x1="177.68" y1="97.733" x2="193.196" y2="97.733"/>
</g>
<path fill="none" stroke="#CCCCCC" stroke-width="1.724" stroke-miterlimit="10" d="M151.523,154.209"/>
<g>
	<g>
		<g>
			<path fill="none" stroke="#CCCCCC" stroke-width="1.724" d="M171.93,168.88c0,0.236-0.194,0.431-0.431,0.431h-39.95
				c-0.237,0-0.431-0.194-0.431-0.431v-41.807c0-0.236,0.194-0.431,0.431-0.431h39.95c0.237,0,0.431,0.194,0.431,0.431V168.88z"/>
		</g>
		<g>
			<line fill="none" stroke="#CCCCCC" stroke-width="1.724" x1="151.523" y1="126.643" x2="151.523" y2="169.311"/>
		</g>
		<g>
			<circle fill="none" stroke="#CCCCCC" stroke-width="1.724" cx="156.369" cy="149.45" r="1.473"/>
		</g>
		<g>
			<circle fill="none" stroke="#CCCCCC" stroke-width="1.724" cx="146.455" cy="149.45" r="1.473"/>
		</g>
	</g>
</g>
<path fill="none" stroke="#CCCCCC" stroke-width="1.724" stroke-miterlimit="10" d="M151.523,147.187"/>
<path fill="none" stroke="#CCCCCC" stroke-width="1.724" d="M86.313,35.664c0,0.952-0.596,1.724-1.33,1.724H2.191
	c-0.734,0-1.33-0.771-1.33-1.724l0,0c0-0.952,0.596-1.724,1.33-1.724h82.792C85.718,33.94,86.313,34.712,86.313,35.664
	L86.313,35.664z"/>
<rect x="3.125" y="37.411" fill="none" stroke="#CCCCCC" stroke-width="1.724" width="80.926" height="131.9"/>
<path fill="none" stroke="#CCCCCC" stroke-width="1.612" stroke-miterlimit="10" d="M7.832,155.896"/>
<g>
	<path fill="none" stroke="#CCCCCC" stroke-width="1.724" stroke-miterlimit="10" d="M37.657,168.88
		c0,0.236-0.194,0.431-0.431,0.431H17.682c-0.237,0-0.431-0.194-0.431-0.431v-41.807c0-0.236,0.194-0.431,0.431-0.431h19.544
		c0.237,0,0.431,0.194,0.431,0.431V168.88z"/>
</g>
<circle fill="none" stroke="#CCCCCC" stroke-width="1.724" cx="32.588" cy="149.45" r="1.473"/>
<path fill="none" stroke="#CCCCCC" stroke-width="0.431" stroke-miterlimit="10" d="M7.832,148.875"/>
<g>
	<g>
		<path fill="none" stroke="#CCCCCC" stroke-width="1.724" d="M35.589,69.439c0,0.279-0.228,0.507-0.507,0.507H18.407
			c-0.279,0-0.507-0.228-0.507-0.507V50.196c0-0.279,0.228-0.507,0.507-0.507h16.675c0.279,0,0.507,0.228,0.507,0.507V69.439z"/>
	</g>
	<path fill="none" stroke="#CCCCCC" stroke-width="1.724" d="M37.871,71.347c0,0.773-0.563,1.401-1.258,1.401H16.876
		c-0.694,0-1.258-0.627-1.258-1.401l0,0c0-0.774,0.563-1.401,1.258-1.401h19.737C37.308,69.946,37.871,70.573,37.871,71.347
		L37.871,71.347z"/>
	<g>
		<path fill="none" stroke="#CCCCCC" stroke-width="1.724" d="M69.276,69.439c0,0.279-0.228,0.507-0.507,0.507H52.094
			c-0.279,0-0.507-0.228-0.507-0.507V50.196c0-0.279,0.228-0.507,0.507-0.507h16.675c0.279,0,0.507,0.228,0.507,0.507V69.439z"/>
	</g>
	<path fill="none" stroke="#CCCCCC" stroke-width="1.724" d="M71.557,71.347c0,0.773-0.563,1.401-1.258,1.401H50.562
		c-0.694,0-1.258-0.627-1.258-1.401l0,0c0-0.774,0.563-1.401,1.258-1.401h19.737C70.994,69.946,71.557,70.573,71.557,71.347
		L71.557,71.347z"/>
</g>
<g>
	<g>
		<path fill="none" stroke="#CCCCCC" stroke-width="1.724" d="M35.589,107.368c0,0.279-0.228,0.507-0.507,0.507H18.407
			c-0.279,0-0.507-0.228-0.507-0.507V88.123c0-0.278,0.228-0.507,0.507-0.507h16.675c0.279,0,0.507,0.229,0.507,0.507V107.368z"/>
	</g>
	<path fill="none" stroke="#CCCCCC" stroke-width="1.724" d="M37.871,109.275c0,0.774-0.563,1.4-1.258,1.4H16.876
		c-0.694,0-1.258-0.626-1.258-1.4l0,0c0-0.773,0.563-1.4,1.258-1.4h19.737C37.308,107.875,37.871,108.502,37.871,109.275
		L37.871,109.275z"/>
	<g>
		<path fill="none" stroke="#CCCCCC" stroke-width="1.724" d="M69.276,107.368c0,0.279-0.228,0.507-0.507,0.507H52.094
			c-0.279,0-0.507-0.228-0.507-0.507V88.123c0-0.278,0.228-0.507,0.507-0.507h16.675c0.279,0,0.507,0.229,0.507,0.507V107.368z"/>
	</g>
	<path fill="none" stroke="#CCCCCC" stroke-width="1.724" d="M71.557,109.275c0,0.774-0.563,1.4-1.258,1.4H50.562
		c-0.694,0-1.258-0.626-1.258-1.4l0,0c0-0.773,0.563-1.4,1.258-1.4h19.737C70.994,107.875,71.557,108.502,71.557,109.275
		L71.557,109.275z"/>
</g>
<g>
	<path fill="none" stroke="#CCCCCC" stroke-width="1.724" d="M69.276,146.805c0,0.278-0.228,0.507-0.507,0.507H52.094
		c-0.279,0-0.507-0.229-0.507-0.507v-19.243c0-0.279,0.228-0.507,0.507-0.507h16.675c0.279,0,0.507,0.228,0.507,0.507V146.805z"/>
</g>
<path fill="none" stroke="#CCCCCC" stroke-width="1.724" d="M71.557,148.713c0,0.773-0.563,1.4-1.258,1.4H50.562
	c-0.694,0-1.258-0.627-1.258-1.4l0,0c0-0.773,0.563-1.401,1.258-1.401h19.737C70.994,147.312,71.557,147.939,71.557,148.713
	L71.557,148.713z"/>
<path fill="none" stroke="#CCCCCC" stroke-width="1.612" stroke-miterlimit="10" d="M220.986,169.311"/>
<path fill="none" stroke="#CCCCCC" stroke-width="0.431" stroke-miterlimit="10" d="M220.986,169.311"/>
<path fill="none" stroke="#CCCCCC" stroke-width="1.724" d="M301.192,73.594c0,0.952-0.595,1.724-1.329,1.724h-82.792
	c-0.735,0-1.33-0.771-1.33-1.724l0,0c0-0.953,0.595-1.725,1.33-1.725h82.792C300.597,71.869,301.192,72.641,301.192,73.594
	L301.192,73.594z"/>
<rect x="218.003" y="75.72" fill="none" stroke="#CCCCCC" stroke-width="1.724" width="80.926" height="93.59"/>
<g>
	<path fill="none" stroke="#CCCCCC" stroke-width="1.724" stroke-miterlimit="10" d="M252.536,168.88
		c0,0.236-0.194,0.431-0.431,0.431H232.56c-0.237,0-0.431-0.194-0.431-0.431v-41.806c0-0.236,0.194-0.431,0.431-0.431h19.544
		c0.237,0,0.431,0.194,0.431,0.431V168.88z"/>
</g>
<circle fill="none" stroke="#CCCCCC" stroke-width="1.724" cx="247.467" cy="149.45" r="1.473"/>
<g>
	<g>
		<path fill="none" stroke="#CCCCCC" stroke-width="1.724" d="M250.467,107.368c0,0.279-0.228,0.507-0.507,0.507h-16.676
			c-0.279,0-0.507-0.228-0.507-0.507V88.125c0-0.278,0.228-0.507,0.507-0.507h16.676c0.279,0,0.507,0.229,0.507,0.507V107.368z"/>
	</g>
	<path fill="none" stroke="#CCCCCC" stroke-width="1.724" d="M252.75,109.276c0,0.773-0.563,1.4-1.258,1.4h-19.737
		c-0.695,0-1.258-0.627-1.258-1.4l0,0c0-0.773,0.563-1.401,1.258-1.401h19.737C252.186,107.875,252.75,108.503,252.75,109.276
		L252.75,109.276z"/>
	<g>
		<path fill="none" stroke="#CCCCCC" stroke-width="1.724" d="M284.154,107.368c0,0.279-0.228,0.507-0.507,0.507h-16.675
			c-0.279,0-0.507-0.228-0.507-0.507V88.125c0-0.278,0.228-0.507,0.507-0.507h16.675c0.279,0,0.507,0.229,0.507,0.507V107.368z"/>
	</g>
	<path fill="none" stroke="#CCCCCC" stroke-width="1.724" d="M286.436,109.276c0,0.773-0.563,1.4-1.257,1.4H265.44
		c-0.693,0-1.256-0.627-1.256-1.4l0,0c0-0.773,0.563-1.401,1.256-1.401h19.738C285.872,107.875,286.436,108.503,286.436,109.276
		L286.436,109.276z"/>
</g>
<g>
	<path fill="none" stroke="#CCCCCC" stroke-width="1.724" d="M284.154,146.806c0,0.279-0.228,0.507-0.507,0.507h-16.675
		c-0.279,0-0.507-0.228-0.507-0.507v-19.244c0-0.279,0.228-0.507,0.507-0.507h16.675c0.279,0,0.507,0.228,0.507,0.507V146.806z"/>
</g>
<path fill="none" stroke="#CCCCCC" stroke-width="1.724" d="M286.436,148.713c0,0.774-0.563,1.4-1.257,1.4H265.44
	c-0.693,0-1.256-0.626-1.256-1.4l0,0c0-0.773,0.563-1.4,1.256-1.4h19.738C285.872,147.312,286.436,147.939,286.436,148.713
	L286.436,148.713z"/>
<path fill="none" stroke="#CCCCCC" stroke-width="1.724" d="M395.898,35.664c0,0.952-0.595,1.724-1.33,1.724h-82.792
	c-0.733,0-1.33-0.771-1.33-1.724l0,0c0-0.952,0.597-1.724,1.33-1.724h82.792C395.303,33.94,395.898,34.712,395.898,35.664
	L395.898,35.664z"/>
<rect x="312.708" y="37.411" fill="none" stroke="#CCCCCC" stroke-width="1.724" width="80.927" height="131.9"/>
<path fill="none" stroke="#CCCCCC" stroke-width="1.612" stroke-miterlimit="10" d="M317.417,155.896"/>
<g>
	<path fill="none" stroke="#CCCCCC" stroke-width="1.724" stroke-miterlimit="10" d="M347.242,168.88
		c0,0.236-0.194,0.431-0.431,0.431h-19.543c-0.237,0-0.431-0.194-0.431-0.431v-41.807c0-0.236,0.194-0.431,0.431-0.431h19.543
		c0.237,0,0.431,0.194,0.431,0.431V168.88z"/>
</g>
<circle fill="none" stroke="#CCCCCC" stroke-width="1.724" cx="342.174" cy="149.449" r="1.473"/>
<path fill="none" stroke="#CCCCCC" stroke-width="0.431" stroke-miterlimit="10" d="M317.417,148.875"/>
<g>
	<g>
		<path fill="none" stroke="#CCCCCC" stroke-width="1.724" d="M345.173,69.439c0,0.279-0.228,0.507-0.507,0.507h-16.674
			c-0.279,0-0.507-0.228-0.507-0.507V50.195c0-0.279,0.228-0.507,0.507-0.507h16.674c0.279,0,0.507,0.228,0.507,0.507V69.439z"/>
	</g>
	<path fill="none" stroke="#CCCCCC" stroke-width="1.724" d="M347.456,71.346c0,0.773-0.563,1.401-1.258,1.401h-19.737
		c-0.695,0-1.258-0.627-1.258-1.401l0,0c0-0.773,0.562-1.4,1.258-1.4h19.737C346.892,69.946,347.456,70.573,347.456,71.346
		L347.456,71.346z"/>
	<g>
		<path fill="none" stroke="#CCCCCC" stroke-width="1.724" d="M378.861,69.439c0,0.279-0.228,0.507-0.507,0.507h-16.676
			c-0.279,0-0.507-0.228-0.507-0.507V50.195c0-0.279,0.228-0.507,0.507-0.507h16.676c0.279,0,0.507,0.228,0.507,0.507V69.439z"/>
	</g>
	<path fill="none" stroke="#CCCCCC" stroke-width="1.724" d="M381.143,71.346c0,0.773-0.564,1.401-1.258,1.401h-19.737
		c-0.695,0-1.258-0.627-1.258-1.401l0,0c0-0.773,0.562-1.4,1.258-1.4h19.737C380.578,69.946,381.143,70.573,381.143,71.346
		L381.143,71.346z"/>
</g>
<g>
	<g>
		<path fill="none" stroke="#CCCCCC" stroke-width="1.724" d="M345.173,107.367c0,0.278-0.228,0.507-0.507,0.507h-16.674
			c-0.279,0-0.507-0.229-0.507-0.507V88.123c0-0.278,0.228-0.507,0.507-0.507h16.674c0.279,0,0.507,0.229,0.507,0.507V107.367z"/>
	</g>
	<path fill="none" stroke="#CCCCCC" stroke-width="1.724" d="M347.456,109.275c0,0.773-0.563,1.4-1.258,1.4h-19.737
		c-0.695,0-1.258-0.627-1.258-1.4l0,0c0-0.773,0.562-1.401,1.258-1.401h19.737C346.892,107.874,347.456,108.502,347.456,109.275
		L347.456,109.275z"/>
	<g>
		<path fill="none" stroke="#CCCCCC" stroke-width="1.724" d="M378.861,107.367c0,0.278-0.228,0.507-0.507,0.507h-16.676
			c-0.279,0-0.507-0.229-0.507-0.507V88.123c0-0.278,0.228-0.507,0.507-0.507h16.676c0.279,0,0.507,0.229,0.507,0.507V107.367z"/>
	</g>
	<path fill="none" stroke="#CCCCCC" stroke-width="1.724" d="M381.143,109.275c0,0.773-0.564,1.4-1.258,1.4h-19.737
		c-0.695,0-1.258-0.627-1.258-1.4l0,0c0-0.773,0.562-1.401,1.258-1.401h19.737C380.578,107.874,381.143,108.502,381.143,109.275
		L381.143,109.275z"/>
</g>
<g>
	<path fill="none" stroke="#CCCCCC" stroke-width="1.724" d="M378.861,146.805c0,0.278-0.228,0.507-0.507,0.507h-16.676
		c-0.279,0-0.507-0.229-0.507-0.507v-19.244c0-0.278,0.228-0.507,0.507-0.507h16.676c0.279,0,0.507,0.229,0.507,0.507V146.805z"/>
</g>
<path fill="none" stroke="#CCCCCC" stroke-width="1.724" d="M381.143,148.713c0,0.773-0.564,1.399-1.258,1.399h-19.737
	c-0.695,0-1.258-0.626-1.258-1.399l0,0c0-0.774,0.562-1.401,1.258-1.401h19.737C380.578,147.312,381.143,147.938,381.143,148.713
	L381.143,148.713z"/>
<path fill="none" stroke="#CCCCCC" stroke-width="1.724" d="M612.311,3.432c0,0.953-0.771,1.724-1.723,1.724H503.266
	c-0.951,0-1.723-0.771-1.723-1.724l0,0c0-0.952,0.771-1.724,1.723-1.724h107.322C611.539,1.708,612.311,2.48,612.311,3.432
	L612.311,3.432z"/>
<rect x="503.482" y="4.726" fill="none" stroke="#CCCCCC" stroke-width="1.724" width="106.891" height="164.247"/>
<rect x="513.117" y="18.396" fill="none" stroke="#CCCCCC" stroke-width="1.293" width="19.826" height="34.911"/>
<line fill="none" stroke="#CCCCCC" stroke-width="1.293" x1="515.271" y1="18.054" x2="515.271" y2="52.966"/>
<line fill="none" stroke="#CCCCCC" stroke-width="1.293" x1="523.029" y1="18.054" x2="523.029" y2="52.966"/>
<line fill="none" stroke="#CCCCCC" stroke-width="1.293" x1="523.029" y1="18.054" x2="523.029" y2="52.966"/>
<line fill="none" stroke="#CCCCCC" stroke-width="1.293" x1="530.789" y1="18.054" x2="530.789" y2="52.966"/>
<g>
	<line fill="none" stroke="#CCCCCC" stroke-width="1.2503" x1="515.254" y1="23.459" x2="530.77" y2="23.459"/>
	<line fill="none" stroke="#CCCCCC" stroke-width="1.2503" x1="515.254" y1="28.417" x2="530.77" y2="28.417"/>
	<line fill="none" stroke="#CCCCCC" stroke-width="1.2503" x1="515.289" y1="33.373" x2="530.807" y2="33.373"/>
	<line fill="none" stroke="#CCCCCC" stroke-width="1.2503" x1="515.289" y1="38.329" x2="530.807" y2="38.329"/>
	<line fill="none" stroke="#CCCCCC" stroke-width="1.2503" x1="515.289" y1="43.286" x2="530.807" y2="43.286"/>
	<line fill="none" stroke="#CCCCCC" stroke-width="1.2503" x1="515.289" y1="48.243" x2="530.807" y2="48.243"/>
</g>
<rect x="547.293" y="18.396" fill="none" stroke="#CCCCCC" stroke-width="1.293" width="19.826" height="34.911"/>
<line fill="none" stroke="#CCCCCC" stroke-width="1.293" x1="549.447" y1="18.054" x2="549.447" y2="52.966"/>
<line fill="none" stroke="#CCCCCC" stroke-width="1.293" x1="557.205" y1="18.054" x2="557.205" y2="52.966"/>
<line fill="none" stroke="#CCCCCC" stroke-width="1.293" x1="557.205" y1="18.054" x2="557.205" y2="52.966"/>
<line fill="none" stroke="#CCCCCC" stroke-width="1.293" x1="564.963" y1="18.054" x2="564.963" y2="52.966"/>
<g>
	<line fill="none" stroke="#CCCCCC" stroke-width="1.2503" x1="549.43" y1="23.459" x2="564.945" y2="23.459"/>
	<line fill="none" stroke="#CCCCCC" stroke-width="1.2503" x1="549.43" y1="28.417" x2="564.945" y2="28.417"/>
	<line fill="none" stroke="#CCCCCC" stroke-width="1.2503" x1="549.465" y1="33.373" x2="564.98" y2="33.373"/>
	<line fill="none" stroke="#CCCCCC" stroke-width="1.2503" x1="549.465" y1="38.329" x2="564.98" y2="38.329"/>
	<line fill="none" stroke="#CCCCCC" stroke-width="1.2503" x1="549.465" y1="43.286" x2="564.98" y2="43.286"/>
	<line fill="none" stroke="#CCCCCC" stroke-width="1.2503" x1="549.465" y1="48.243" x2="564.98" y2="48.243"/>
</g>
<rect x="580.91" y="18.396" fill="none" stroke="#CCCCCC" stroke-width="1.293" width="19.828" height="34.911"/>
<line fill="none" stroke="#CCCCCC" stroke-width="1.293" x1="583.066" y1="18.054" x2="583.066" y2="52.966"/>
<line fill="none" stroke="#CCCCCC" stroke-width="1.293" x1="590.824" y1="18.054" x2="590.824" y2="52.966"/>
<line fill="none" stroke="#CCCCCC" stroke-width="1.293" x1="590.824" y1="18.054" x2="590.824" y2="52.966"/>
<line fill="none" stroke="#CCCCCC" stroke-width="1.293" x1="598.582" y1="18.054" x2="598.582" y2="52.966"/>
<g>
	<line fill="none" stroke="#CCCCCC" stroke-width="1.2503" x1="583.049" y1="23.459" x2="598.564" y2="23.459"/>
	<line fill="none" stroke="#CCCCCC" stroke-width="1.2503" x1="583.049" y1="28.417" x2="598.564" y2="28.417"/>
	<line fill="none" stroke="#CCCCCC" stroke-width="1.2503" x1="583.084" y1="33.373" x2="598.6" y2="33.373"/>
	<line fill="none" stroke="#CCCCCC" stroke-width="1.2503" x1="583.084" y1="38.329" x2="598.6" y2="38.329"/>
	<line fill="none" stroke="#CCCCCC" stroke-width="1.2503" x1="583.084" y1="43.286" x2="598.6" y2="43.286"/>
	<line fill="none" stroke="#CCCCCC" stroke-width="1.2503" x1="583.084" y1="48.243" x2="598.6" y2="48.243"/>
</g>
<rect x="513.117" y="67.548" fill="none" stroke="#CCCCCC" stroke-width="1.293" width="19.826" height="34.912"/>
<line fill="none" stroke="#CCCCCC" stroke-width="1.293" x1="515.271" y1="67.208" x2="515.271" y2="102.118"/>
<line fill="none" stroke="#CCCCCC" stroke-width="1.293" x1="523.029" y1="67.208" x2="523.029" y2="102.118"/>
<line fill="none" stroke="#CCCCCC" stroke-width="1.293" x1="523.029" y1="67.208" x2="523.029" y2="102.118"/>
<line fill="none" stroke="#CCCCCC" stroke-width="1.293" x1="530.789" y1="67.208" x2="530.789" y2="102.118"/>
<g>
	<line fill="none" stroke="#CCCCCC" stroke-width="1.2503" x1="515.254" y1="72.612" x2="530.77" y2="72.612"/>
	<line fill="none" stroke="#CCCCCC" stroke-width="1.2503" x1="515.254" y1="77.569" x2="530.77" y2="77.569"/>
	<line fill="none" stroke="#CCCCCC" stroke-width="1.2503" x1="515.289" y1="82.526" x2="530.807" y2="82.526"/>
	<line fill="none" stroke="#CCCCCC" stroke-width="1.2503" x1="515.289" y1="87.481" x2="530.807" y2="87.481"/>
	<line fill="none" stroke="#CCCCCC" stroke-width="1.2503" x1="515.289" y1="92.438" x2="530.807" y2="92.438"/>
	<line fill="none" stroke="#CCCCCC" stroke-width="1.2503" x1="515.289" y1="97.396" x2="530.807" y2="97.396"/>
</g>
<rect x="547.293" y="67.548" fill="none" stroke="#CCCCCC" stroke-width="1.293" width="19.826" height="34.912"/>
<line fill="none" stroke="#CCCCCC" stroke-width="1.293" x1="549.447" y1="67.208" x2="549.447" y2="102.118"/>
<line fill="none" stroke="#CCCCCC" stroke-width="1.293" x1="557.205" y1="67.208" x2="557.205" y2="102.118"/>
<line fill="none" stroke="#CCCCCC" stroke-width="1.293" x1="557.205" y1="67.208" x2="557.205" y2="102.118"/>
<line fill="none" stroke="#CCCCCC" stroke-width="1.293" x1="564.963" y1="67.208" x2="564.963" y2="102.118"/>
<g>
	<line fill="none" stroke="#CCCCCC" stroke-width="1.2503" x1="549.43" y1="72.612" x2="564.945" y2="72.612"/>
	<line fill="none" stroke="#CCCCCC" stroke-width="1.2503" x1="549.43" y1="77.569" x2="564.945" y2="77.569"/>
	<line fill="none" stroke="#CCCCCC" stroke-width="1.2503" x1="549.465" y1="82.526" x2="564.98" y2="82.526"/>
	<line fill="none" stroke="#CCCCCC" stroke-width="1.2503" x1="549.465" y1="87.481" x2="564.98" y2="87.481"/>
	<line fill="none" stroke="#CCCCCC" stroke-width="1.2503" x1="549.465" y1="92.438" x2="564.98" y2="92.438"/>
	<line fill="none" stroke="#CCCCCC" stroke-width="1.2503" x1="549.465" y1="97.396" x2="564.98" y2="97.396"/>
</g>
<rect x="580.91" y="67.548" fill="none" stroke="#CCCCCC" stroke-width="1.293" width="19.828" height="34.912"/>
<line fill="none" stroke="#CCCCCC" stroke-width="1.293" x1="583.066" y1="67.208" x2="583.066" y2="102.118"/>
<line fill="none" stroke="#CCCCCC" stroke-width="1.293" x1="590.824" y1="67.208" x2="590.824" y2="102.118"/>
<line fill="none" stroke="#CCCCCC" stroke-width="1.293" x1="590.824" y1="67.208" x2="590.824" y2="102.118"/>
<line fill="none" stroke="#CCCCCC" stroke-width="1.293" x1="598.582" y1="67.208" x2="598.582" y2="102.118"/>
<g>
	<line fill="none" stroke="#CCCCCC" stroke-width="1.2503" x1="583.049" y1="72.612" x2="598.564" y2="72.612"/>
	<line fill="none" stroke="#CCCCCC" stroke-width="1.2503" x1="583.049" y1="77.569" x2="598.564" y2="77.569"/>
	<line fill="none" stroke="#CCCCCC" stroke-width="1.2503" x1="583.084" y1="82.526" x2="598.6" y2="82.526"/>
	<line fill="none" stroke="#CCCCCC" stroke-width="1.2503" x1="583.084" y1="87.481" x2="598.6" y2="87.481"/>
	<line fill="none" stroke="#CCCCCC" stroke-width="1.2503" x1="583.084" y1="92.438" x2="598.6" y2="92.438"/>
	<line fill="none" stroke="#CCCCCC" stroke-width="1.2503" x1="583.084" y1="97.396" x2="598.6" y2="97.396"/>
</g>
<path fill="none" stroke="#CCCCCC" stroke-width="1.724" stroke-miterlimit="10" d="M556.928,153.872"/>
<g>
	<g>
		<g>
			<path fill="none" stroke="#CCCCCC" stroke-width="1.724" d="M577.334,168.542c0,0.236-0.194,0.431-0.431,0.431h-39.951
				c-0.236,0-0.431-0.194-0.431-0.431v-41.806c0-0.236,0.194-0.431,0.431-0.431h39.951c0.236,0,0.431,0.194,0.431,0.431V168.542z"/>
		</g>
		<g>
			<line fill="none" stroke="#CCCCCC" stroke-width="1.724" x1="556.928" y1="126.306" x2="556.928" y2="168.973"/>
		</g>
		<g>
			<circle fill="none" stroke="#CCCCCC" stroke-width="1.724" cx="561.772" cy="149.114" r="1.474"/>
		</g>
		<g>
			<circle fill="none" stroke="#CCCCCC" stroke-width="1.724" cx="551.858" cy="149.114" r="1.474"/>
		</g>
	</g>
</g>
<path fill="none" stroke="#CCCCCC" stroke-width="1.724" stroke-miterlimit="10" d="M556.928,146.85"/>
<path fill="none" stroke="#CCCCCC" stroke-width="1.724" d="M491.717,35.327c0,0.952-0.596,1.724-1.33,1.724h-82.791
	c-0.734,0-1.331-0.772-1.331-1.724l0,0c0-0.952,0.597-1.724,1.331-1.724h82.791C491.121,33.604,491.717,34.375,491.717,35.327
	L491.717,35.327z"/>
<rect x="408.527" y="37.074" fill="none" stroke="#CCCCCC" stroke-width="1.724" width="80.926" height="131.899"/>
<path fill="none" stroke="#CCCCCC" stroke-width="1.612" stroke-miterlimit="10" d="M413.234,155.561"/>
<g>
	<path fill="none" stroke="#CCCCCC" stroke-width="1.724" stroke-miterlimit="10" d="M443.061,168.542
		c0,0.236-0.194,0.431-0.431,0.431h-19.545c-0.236,0-0.431-0.194-0.431-0.431v-41.806c0-0.236,0.194-0.431,0.431-0.431h19.545
		c0.236,0,0.431,0.194,0.431,0.431V168.542z"/>
</g>
<circle fill="none" stroke="#CCCCCC" stroke-width="1.724" cx="437.992" cy="149.114" r="1.473"/>
<path fill="none" stroke="#CCCCCC" stroke-width="0.431" stroke-miterlimit="10" d="M413.234,148.538"/>
<g>
	<g>
		<path fill="none" stroke="#CCCCCC" stroke-width="1.724" d="M440.992,69.103c0,0.279-0.229,0.507-0.507,0.507H423.81
			c-0.278,0-0.507-0.228-0.507-0.507V49.858c0-0.279,0.229-0.507,0.507-0.507h16.676c0.278,0,0.507,0.228,0.507,0.507V69.103z"/>
	</g>
	<path fill="none" stroke="#CCCCCC" stroke-width="1.724" d="M443.275,71.01c0,0.773-0.564,1.401-1.258,1.401h-19.738
		c-0.695,0-1.258-0.627-1.258-1.401l0,0c0-0.774,0.562-1.401,1.258-1.401h19.738C442.711,69.609,443.275,70.236,443.275,71.01
		L443.275,71.01z"/>
	<g>
		<path fill="none" stroke="#CCCCCC" stroke-width="1.724" d="M474.68,69.103c0,0.279-0.229,0.507-0.507,0.507h-16.676
			c-0.278,0-0.507-0.228-0.507-0.507V49.858c0-0.279,0.229-0.507,0.507-0.507h16.676c0.278,0,0.507,0.228,0.507,0.507V69.103z"/>
	</g>
	<path fill="none" stroke="#CCCCCC" stroke-width="1.724" d="M476.961,71.01c0,0.773-0.564,1.401-1.258,1.401h-19.736
		c-0.695,0-1.26-0.627-1.26-1.401l0,0c0-0.774,0.564-1.401,1.26-1.401h19.736C476.396,69.609,476.961,70.236,476.961,71.01
		L476.961,71.01z"/>
</g>
<g>
	<g>
		<path fill="none" stroke="#CCCCCC" stroke-width="1.724" d="M440.992,107.031c0,0.278-0.229,0.507-0.507,0.507H423.81
			c-0.278,0-0.507-0.229-0.507-0.507V87.786c0-0.279,0.229-0.507,0.507-0.507h16.676c0.278,0,0.507,0.228,0.507,0.507V107.031z"/>
	</g>
	<path fill="none" stroke="#CCCCCC" stroke-width="1.724" d="M443.275,108.938c0,0.773-0.564,1.4-1.258,1.4h-19.738
		c-0.695,0-1.258-0.627-1.258-1.4l0,0c0-0.773,0.562-1.4,1.258-1.4h19.738C442.711,107.538,443.275,108.165,443.275,108.938
		L443.275,108.938z"/>
	<g>
		<path fill="none" stroke="#CCCCCC" stroke-width="1.724" d="M474.68,107.031c0,0.278-0.229,0.507-0.507,0.507h-16.676
			c-0.278,0-0.507-0.229-0.507-0.507V87.786c0-0.279,0.229-0.507,0.507-0.507h16.676c0.278,0,0.507,0.228,0.507,0.507V107.031z"/>
	</g>
	<path fill="none" stroke="#CCCCCC" stroke-width="1.724" d="M476.961,108.938c0,0.773-0.564,1.4-1.258,1.4h-19.736
		c-0.695,0-1.26-0.627-1.26-1.4l0,0c0-0.773,0.564-1.4,1.26-1.4h19.736C476.396,107.538,476.961,108.165,476.961,108.938
		L476.961,108.938z"/>
</g>
<g>
	<path fill="none" stroke="#CCCCCC" stroke-width="1.724" d="M474.68,146.469c0,0.278-0.229,0.507-0.507,0.507h-16.676
		c-0.278,0-0.507-0.229-0.507-0.507v-19.243c0-0.279,0.229-0.507,0.507-0.507h16.676c0.278,0,0.507,0.228,0.507,0.507V146.469z"/>
</g>
<path fill="none" stroke="#CCCCCC" stroke-width="1.724" d="M476.961,148.376c0,0.773-0.564,1.4-1.258,1.4h-19.736
	c-0.695,0-1.26-0.627-1.26-1.4l0,0c0-0.773,0.564-1.4,1.26-1.4h19.736C476.396,146.976,476.961,147.603,476.961,148.376
	L476.961,148.376z"/>
<path fill="none" stroke="#CCCCCC" stroke-width="1.612" stroke-miterlimit="10" d="M626.389,168.973"/>
<path fill="none" stroke="#CCCCCC" stroke-width="0.431" stroke-miterlimit="10" d="M626.389,168.973"/>
<path fill="none" stroke="#CCCCCC" stroke-width="1.724" d="M706.594,73.257c0,0.952-0.594,1.724-1.328,1.724h-82.793
	c-0.734,0-1.328-0.772-1.328-1.724l0,0c0-0.953,0.594-1.725,1.328-1.725h82.793C706,71.532,706.594,72.304,706.594,73.257
	L706.594,73.257z"/>
<rect x="623.406" y="75.383" fill="none" stroke="#CCCCCC" stroke-width="1.724" width="80.926" height="93.589"/>
<g>
	<path fill="none" stroke="#CCCCCC" stroke-width="1.724" stroke-miterlimit="10" d="M657.938,168.542
		c0,0.236-0.194,0.431-0.431,0.431h-19.545c-0.236,0-0.431-0.194-0.431-0.431v-41.804c0-0.236,0.194-0.431,0.431-0.431h19.545
		c0.236,0,0.431,0.194,0.431,0.431V168.542z"/>
</g>
<circle fill="none" stroke="#CCCCCC" stroke-width="1.724" cx="652.869" cy="149.114" r="1.473"/>
<g>
	<g>
		<path fill="none" stroke="#CCCCCC" stroke-width="1.724" d="M655.871,107.031c0,0.278-0.229,0.507-0.507,0.507h-16.676
			c-0.278,0-0.507-0.229-0.507-0.507V87.788c0-0.279,0.229-0.507,0.507-0.507h16.676c0.278,0,0.507,0.228,0.507,0.507V107.031z"/>
	</g>
	<path fill="none" stroke="#CCCCCC" stroke-width="1.724" d="M658.152,108.938c0,0.773-0.562,1.4-1.258,1.4h-19.736
		c-0.695,0-1.258-0.627-1.258-1.4l0,0c0-0.773,0.562-1.4,1.258-1.4h19.736C657.59,107.538,658.152,108.165,658.152,108.938
		L658.152,108.938z"/>
	<g>
		<path fill="none" stroke="#CCCCCC" stroke-width="1.724" d="M689.557,107.031c0,0.278-0.229,0.507-0.507,0.507h-16.676
			c-0.278,0-0.507-0.229-0.507-0.507V87.788c0-0.279,0.229-0.507,0.507-0.507h16.676c0.278,0,0.507,0.228,0.507,0.507V107.031z"/>
	</g>
	<path fill="none" stroke="#CCCCCC" stroke-width="1.724" d="M691.838,108.938c0,0.773-0.564,1.4-1.258,1.4h-19.738
		c-0.693,0-1.256-0.627-1.256-1.4l0,0c0-0.773,0.562-1.4,1.256-1.4h19.738C691.273,107.538,691.838,108.165,691.838,108.938
		L691.838,108.938z"/>
</g>
<g>
	<path fill="none" stroke="#CCCCCC" stroke-width="1.724" d="M689.557,146.469c0,0.278-0.229,0.507-0.507,0.507h-16.676
		c-0.278,0-0.507-0.229-0.507-0.507v-19.243c0-0.279,0.229-0.507,0.507-0.507h16.676c0.278,0,0.507,0.228,0.507,0.507V146.469z"/>
</g>
<path fill="none" stroke="#CCCCCC" stroke-width="1.724" d="M691.838,148.376c0,0.773-0.564,1.4-1.258,1.4h-19.738
	c-0.693,0-1.256-0.627-1.256-1.4l0,0c0-0.773,0.562-1.4,1.256-1.4h19.738C691.273,146.976,691.838,147.603,691.838,148.376
	L691.838,148.376z"/>
<path fill="none" stroke="#CCCCCC" stroke-width="1.724" d="M801.301,35.327c0,0.952-0.594,1.724-1.328,1.724H717.18
	c-0.734,0-1.33-0.772-1.33-1.724l0,0c0-0.952,0.596-1.724,1.33-1.724h82.793C800.707,33.604,801.301,34.375,801.301,35.327
	L801.301,35.327z"/>
<rect x="718.111" y="37.074" fill="none" stroke="#CCCCCC" stroke-width="1.724" width="80.928" height="131.899"/>
<path fill="none" stroke="#CCCCCC" stroke-width="1.612" stroke-miterlimit="10" d="M722.82,155.559"/>
<g>
	<path fill="none" stroke="#CCCCCC" stroke-width="1.724" stroke-miterlimit="10" d="M752.645,168.542
		c0,0.236-0.194,0.431-0.431,0.431h-19.545c-0.236,0-0.431-0.194-0.431-0.431v-41.806c0-0.236,0.194-0.431,0.431-0.431h19.545
		c0.236,0,0.431,0.194,0.431,0.431V168.542z"/>
</g>
<circle fill="none" stroke="#CCCCCC" stroke-width="1.724" cx="747.576" cy="149.112" r="1.473"/>
<path fill="none" stroke="#CCCCCC" stroke-width="0.431" stroke-miterlimit="10" d="M722.82,148.538"/>
<g>
	<g>
		<path fill="none" stroke="#CCCCCC" stroke-width="1.724" d="M750.576,69.102c0,0.279-0.229,0.507-0.507,0.507h-16.674
			c-0.278,0-0.507-0.228-0.507-0.507V49.858c0-0.279,0.229-0.507,0.507-0.507h16.674c0.278,0,0.507,0.228,0.507,0.507V69.102z"/>
	</g>
	<path fill="none" stroke="#CCCCCC" stroke-width="1.724" d="M752.859,71.009c0,0.773-0.564,1.401-1.258,1.401h-19.736
		c-0.695,0-1.258-0.627-1.258-1.401l0,0c0-0.773,0.562-1.401,1.258-1.401h19.736C752.295,69.608,752.859,70.236,752.859,71.009
		L752.859,71.009z"/>
	<g>
		<path fill="none" stroke="#CCCCCC" stroke-width="1.724" d="M784.264,69.102c0,0.279-0.229,0.507-0.507,0.507h-16.676
			c-0.278,0-0.507-0.228-0.507-0.507V49.858c0-0.279,0.229-0.507,0.507-0.507h16.676c0.278,0,0.507,0.228,0.507,0.507V69.102z"/>
	</g>
	<path fill="none" stroke="#CCCCCC" stroke-width="1.724" d="M786.545,71.009c0,0.773-0.564,1.401-1.258,1.401h-19.736
		c-0.695,0-1.258-0.627-1.258-1.401l0,0c0-0.773,0.562-1.401,1.258-1.401h19.736C785.98,69.608,786.545,70.236,786.545,71.009
		L786.545,71.009z"/>
</g>
<g>
	<g>
		<path fill="none" stroke="#CCCCCC" stroke-width="1.724" d="M750.576,107.031c0,0.278-0.229,0.507-0.507,0.507h-16.674
			c-0.278,0-0.507-0.229-0.507-0.507V87.786c0-0.279,0.229-0.507,0.507-0.507h16.674c0.278,0,0.507,0.228,0.507,0.507V107.031z"/>
	</g>
	<path fill="none" stroke="#CCCCCC" stroke-width="1.724" d="M752.859,108.938c0,0.773-0.564,1.4-1.258,1.4h-19.736
		c-0.695,0-1.258-0.627-1.258-1.4l0,0c0-0.773,0.562-1.4,1.258-1.4h19.736C752.295,107.538,752.859,108.165,752.859,108.938
		L752.859,108.938z"/>
	<g>
		<path fill="none" stroke="#CCCCCC" stroke-width="1.724" d="M784.264,107.031c0,0.278-0.229,0.507-0.507,0.507h-16.676
			c-0.278,0-0.507-0.229-0.507-0.507V87.786c0-0.279,0.229-0.507,0.507-0.507h16.676c0.278,0,0.507,0.228,0.507,0.507V107.031z"/>
	</g>
	<path fill="none" stroke="#CCCCCC" stroke-width="1.724" d="M786.545,108.938c0,0.773-0.564,1.4-1.258,1.4h-19.736
		c-0.695,0-1.258-0.627-1.258-1.4l0,0c0-0.773,0.562-1.4,1.258-1.4h19.736C785.98,107.538,786.545,108.165,786.545,108.938
		L786.545,108.938z"/>
</g>
<g>
	<path fill="none" stroke="#CCCCCC" stroke-width="1.724" d="M784.264,146.469c0,0.278-0.229,0.507-0.507,0.507h-16.676
		c-0.278,0-0.507-0.229-0.507-0.507v-19.245c0-0.279,0.229-0.507,0.507-0.507h16.676c0.278,0,0.507,0.228,0.507,0.507V146.469z"/>
</g>
<path fill="none" stroke="#CCCCCC" stroke-width="1.724" d="M786.545,148.376c0,0.773-0.564,1.399-1.258,1.399h-19.736
	c-0.695,0-1.258-0.626-1.258-1.399l0,0c0-0.775,0.562-1.4,1.258-1.4h19.736C785.98,146.976,786.545,147.601,786.545,148.376
	L786.545,148.376z"/>
<path fill="none" stroke="#CCCCCC" stroke-width="1.724" d="M1018.452,2.923c0,0.952-0.771,1.724-1.724,1.724H909.407
	c-0.952,0-1.724-0.772-1.724-1.724l0,0c0-0.952,0.771-1.724,1.724-1.724h107.321C1017.681,1.199,1018.452,1.971,1018.452,2.923
	L1018.452,2.923z"/>
<rect x="909.623" y="4.216" fill="none" stroke="#CCCCCC" stroke-width="1.724" width="106.891" height="164.248"/>
<rect x="919.258" y="17.886" fill="none" stroke="#CCCCCC" stroke-width="1.293" width="19.826" height="34.911"/>
<line fill="none" stroke="#CCCCCC" stroke-width="1.293" x1="921.412" y1="17.544" x2="921.412" y2="52.456"/>
<line fill="none" stroke="#CCCCCC" stroke-width="1.293" x1="929.17" y1="17.544" x2="929.17" y2="52.456"/>
<line fill="none" stroke="#CCCCCC" stroke-width="1.293" x1="929.17" y1="17.544" x2="929.17" y2="52.456"/>
<line fill="none" stroke="#CCCCCC" stroke-width="1.293" x1="936.929" y1="17.544" x2="936.929" y2="52.456"/>
<g>
	<line fill="none" stroke="#CCCCCC" stroke-width="1.2503" x1="921.395" y1="22.95" x2="936.91" y2="22.95"/>
	<line fill="none" stroke="#CCCCCC" stroke-width="1.2503" x1="921.395" y1="27.907" x2="936.91" y2="27.907"/>
	<line fill="none" stroke="#CCCCCC" stroke-width="1.2503" x1="921.43" y1="32.863" x2="936.947" y2="32.863"/>
	<line fill="none" stroke="#CCCCCC" stroke-width="1.2503" x1="921.43" y1="37.819" x2="936.947" y2="37.819"/>
	<line fill="none" stroke="#CCCCCC" stroke-width="1.2503" x1="921.43" y1="42.776" x2="936.947" y2="42.776"/>
	<line fill="none" stroke="#CCCCCC" stroke-width="1.2503" x1="921.43" y1="47.733" x2="936.947" y2="47.733"/>
</g>
<rect x="953.434" y="17.886" fill="none" stroke="#CCCCCC" stroke-width="1.293" width="19.826" height="34.911"/>
<line fill="none" stroke="#CCCCCC" stroke-width="1.293" x1="955.588" y1="17.544" x2="955.588" y2="52.456"/>
<line fill="none" stroke="#CCCCCC" stroke-width="1.293" x1="963.346" y1="17.544" x2="963.346" y2="52.456"/>
<line fill="none" stroke="#CCCCCC" stroke-width="1.293" x1="963.346" y1="17.544" x2="963.346" y2="52.456"/>
<line fill="none" stroke="#CCCCCC" stroke-width="1.293" x1="971.104" y1="17.544" x2="971.104" y2="52.456"/>
<g>
	<line fill="none" stroke="#CCCCCC" stroke-width="1.2503" x1="955.57" y1="22.95" x2="971.086" y2="22.95"/>
	<line fill="none" stroke="#CCCCCC" stroke-width="1.2503" x1="955.57" y1="27.907" x2="971.086" y2="27.907"/>
	<line fill="none" stroke="#CCCCCC" stroke-width="1.2503" x1="955.605" y1="32.863" x2="971.122" y2="32.863"/>
	<line fill="none" stroke="#CCCCCC" stroke-width="1.2503" x1="955.605" y1="37.819" x2="971.122" y2="37.819"/>
	<line fill="none" stroke="#CCCCCC" stroke-width="1.2503" x1="955.605" y1="42.776" x2="971.122" y2="42.776"/>
	<line fill="none" stroke="#CCCCCC" stroke-width="1.2503" x1="955.605" y1="47.733" x2="971.122" y2="47.733"/>
</g>
<rect x="987.051" y="17.886" fill="none" stroke="#CCCCCC" stroke-width="1.293" width="19.827" height="34.911"/>
<line fill="none" stroke="#CCCCCC" stroke-width="1.293" x1="989.207" y1="17.544" x2="989.207" y2="52.456"/>
<line fill="none" stroke="#CCCCCC" stroke-width="1.293" x1="996.965" y1="17.544" x2="996.965" y2="52.456"/>
<line fill="none" stroke="#CCCCCC" stroke-width="1.293" x1="996.965" y1="17.544" x2="996.965" y2="52.456"/>
<line fill="none" stroke="#CCCCCC" stroke-width="1.293" x1="1004.724" y1="17.544" x2="1004.724" y2="52.456"/>
<g>
	<line fill="none" stroke="#CCCCCC" stroke-width="1.2503" x1="989.189" y1="22.95" x2="1004.705" y2="22.95"/>
	<line fill="none" stroke="#CCCCCC" stroke-width="1.2503" x1="989.189" y1="27.907" x2="1004.705" y2="27.907"/>
	<line fill="none" stroke="#CCCCCC" stroke-width="1.2503" x1="989.225" y1="32.863" x2="1004.74" y2="32.863"/>
	<line fill="none" stroke="#CCCCCC" stroke-width="1.2503" x1="989.225" y1="37.819" x2="1004.74" y2="37.819"/>
	<line fill="none" stroke="#CCCCCC" stroke-width="1.2503" x1="989.225" y1="42.776" x2="1004.74" y2="42.776"/>
	<line fill="none" stroke="#CCCCCC" stroke-width="1.2503" x1="989.225" y1="47.733" x2="1004.74" y2="47.733"/>
</g>
<rect x="919.258" y="67.039" fill="none" stroke="#CCCCCC" stroke-width="1.293" width="19.826" height="34.912"/>
<line fill="none" stroke="#CCCCCC" stroke-width="1.293" x1="921.412" y1="66.698" x2="921.412" y2="101.609"/>
<line fill="none" stroke="#CCCCCC" stroke-width="1.293" x1="929.17" y1="66.698" x2="929.17" y2="101.609"/>
<line fill="none" stroke="#CCCCCC" stroke-width="1.293" x1="929.17" y1="66.698" x2="929.17" y2="101.609"/>
<line fill="none" stroke="#CCCCCC" stroke-width="1.293" x1="936.929" y1="66.698" x2="936.929" y2="101.609"/>
<g>
	<line fill="none" stroke="#CCCCCC" stroke-width="1.2503" x1="921.395" y1="72.103" x2="936.91" y2="72.103"/>
	<line fill="none" stroke="#CCCCCC" stroke-width="1.2503" x1="921.395" y1="77.06" x2="936.91" y2="77.06"/>
	<line fill="none" stroke="#CCCCCC" stroke-width="1.2503" x1="921.43" y1="82.016" x2="936.947" y2="82.016"/>
	<line fill="none" stroke="#CCCCCC" stroke-width="1.2503" x1="921.43" y1="86.973" x2="936.947" y2="86.973"/>
	<line fill="none" stroke="#CCCCCC" stroke-width="1.2503" x1="921.43" y1="91.93" x2="936.947" y2="91.93"/>
	<line fill="none" stroke="#CCCCCC" stroke-width="1.2503" x1="921.43" y1="96.887" x2="936.947" y2="96.887"/>
</g>
<rect x="953.434" y="67.039" fill="none" stroke="#CCCCCC" stroke-width="1.293" width="19.826" height="34.912"/>
<line fill="none" stroke="#CCCCCC" stroke-width="1.293" x1="955.588" y1="66.698" x2="955.588" y2="101.609"/>
<line fill="none" stroke="#CCCCCC" stroke-width="1.293" x1="963.346" y1="66.698" x2="963.346" y2="101.609"/>
<line fill="none" stroke="#CCCCCC" stroke-width="1.293" x1="963.346" y1="66.698" x2="963.346" y2="101.609"/>
<line fill="none" stroke="#CCCCCC" stroke-width="1.293" x1="971.104" y1="66.698" x2="971.104" y2="101.609"/>
<g>
	<line fill="none" stroke="#CCCCCC" stroke-width="1.2503" x1="955.57" y1="72.103" x2="971.086" y2="72.103"/>
	<line fill="none" stroke="#CCCCCC" stroke-width="1.2503" x1="955.57" y1="77.06" x2="971.086" y2="77.06"/>
	<line fill="none" stroke="#CCCCCC" stroke-width="1.2503" x1="955.605" y1="82.016" x2="971.122" y2="82.016"/>
	<line fill="none" stroke="#CCCCCC" stroke-width="1.2503" x1="955.605" y1="86.973" x2="971.122" y2="86.973"/>
	<line fill="none" stroke="#CCCCCC" stroke-width="1.2503" x1="955.605" y1="91.93" x2="971.122" y2="91.93"/>
	<line fill="none" stroke="#CCCCCC" stroke-width="1.2503" x1="955.605" y1="96.887" x2="971.122" y2="96.887"/>
</g>
<rect x="987.051" y="67.039" fill="none" stroke="#CCCCCC" stroke-width="1.293" width="19.827" height="34.912"/>
<line fill="none" stroke="#CCCCCC" stroke-width="1.293" x1="989.207" y1="66.698" x2="989.207" y2="101.609"/>
<line fill="none" stroke="#CCCCCC" stroke-width="1.293" x1="996.965" y1="66.698" x2="996.965" y2="101.609"/>
<line fill="none" stroke="#CCCCCC" stroke-width="1.293" x1="996.965" y1="66.698" x2="996.965" y2="101.609"/>
<line fill="none" stroke="#CCCCCC" stroke-width="1.293" x1="1004.724" y1="66.698" x2="1004.724" y2="101.609"/>
<g>
	<line fill="none" stroke="#CCCCCC" stroke-width="1.2503" x1="989.189" y1="72.103" x2="1004.705" y2="72.103"/>
	<line fill="none" stroke="#CCCCCC" stroke-width="1.2503" x1="989.189" y1="77.06" x2="1004.705" y2="77.06"/>
	<line fill="none" stroke="#CCCCCC" stroke-width="1.2503" x1="989.225" y1="82.016" x2="1004.74" y2="82.016"/>
	<line fill="none" stroke="#CCCCCC" stroke-width="1.2503" x1="989.225" y1="86.973" x2="1004.74" y2="86.973"/>
	<line fill="none" stroke="#CCCCCC" stroke-width="1.2503" x1="989.225" y1="91.93" x2="1004.74" y2="91.93"/>
	<line fill="none" stroke="#CCCCCC" stroke-width="1.2503" x1="989.225" y1="96.887" x2="1004.74" y2="96.887"/>
</g>
<path fill="none" stroke="#CCCCCC" stroke-width="1.724" stroke-miterlimit="10" d="M963.067,153.362"/>
<g>
	<g>
		<g>
			<path fill="none" stroke="#CCCCCC" stroke-width="1.724" d="M983.474,168.033c0,0.236-0.194,0.431-0.431,0.431h-39.95
				c-0.237,0-0.431-0.194-0.431-0.431v-41.807c0-0.236,0.193-0.431,0.431-0.431h39.95c0.236,0,0.431,0.194,0.431,0.431V168.033z"/>
		</g>
		<g>
			<line fill="none" stroke="#CCCCCC" stroke-width="1.724" x1="963.067" y1="125.796" x2="963.067" y2="168.464"/>
		</g>
		<g>
			<circle fill="none" stroke="#CCCCCC" stroke-width="1.724" cx="967.913" cy="148.604" r="1.474"/>
		</g>
		<g>
			<circle fill="none" stroke="#CCCCCC" stroke-width="1.724" cx="957.999" cy="148.604" r="1.474"/>
		</g>
	</g>
</g>
<path fill="none" stroke="#CCCCCC" stroke-width="1.724" stroke-miterlimit="10" d="M963.067,146.34"/>
<path fill="none" stroke="#CCCCCC" stroke-width="1.724" d="M897.857,34.817c0,0.952-0.596,1.724-1.33,1.724h-82.792
	c-0.733,0-1.329-0.771-1.329-1.724l0,0c0-0.952,0.596-1.724,1.329-1.724h82.792C897.262,33.094,897.857,33.865,897.857,34.817
	L897.857,34.817z"/>
<rect x="814.668" y="36.564" fill="none" stroke="#CCCCCC" stroke-width="1.724" width="80.926" height="131.9"/>
<path fill="none" stroke="#CCCCCC" stroke-width="1.612" stroke-miterlimit="10" d="M819.375,155.05"/>
<g>
	<path fill="none" stroke="#CCCCCC" stroke-width="1.724" stroke-miterlimit="10" d="M849.201,168.033
		c0,0.236-0.193,0.431-0.432,0.431h-19.543c-0.238,0-0.432-0.194-0.432-0.431v-41.807c0-0.236,0.193-0.431,0.432-0.431h19.543
		c0.238,0,0.432,0.194,0.432,0.431V168.033z"/>
</g>
<circle fill="none" stroke="#CCCCCC" stroke-width="1.724" cx="844.132" cy="148.604" r="1.473"/>
<path fill="none" stroke="#CCCCCC" stroke-width="0.431" stroke-miterlimit="10" d="M819.375,148.028"/>
<g>
	<g>
		<path fill="none" stroke="#CCCCCC" stroke-width="1.724" d="M847.133,68.593c0,0.279-0.229,0.507-0.507,0.507h-16.675
			c-0.279,0-0.507-0.228-0.507-0.507V49.349c0-0.279,0.228-0.507,0.507-0.507h16.675c0.278,0,0.507,0.228,0.507,0.507V68.593z"/>
	</g>
	<path fill="none" stroke="#CCCCCC" stroke-width="1.724" d="M849.415,70.5c0,0.773-0.563,1.401-1.259,1.401H828.42
		c-0.694,0-1.258-0.627-1.258-1.401l0,0c0-0.774,0.563-1.401,1.258-1.401h19.736C848.852,69.1,849.415,69.726,849.415,70.5
		L849.415,70.5z"/>
	<g>
		<path fill="none" stroke="#CCCCCC" stroke-width="1.724" d="M880.82,68.593c0,0.279-0.229,0.507-0.508,0.507h-16.675
			c-0.278,0-0.507-0.228-0.507-0.507V49.349c0-0.279,0.229-0.507,0.507-0.507h16.675c0.279,0,0.508,0.228,0.508,0.507V68.593z"/>
	</g>
	<path fill="none" stroke="#CCCCCC" stroke-width="1.724" d="M883.102,70.5c0,0.773-0.564,1.401-1.258,1.401h-19.737
		c-0.694,0-1.258-0.627-1.258-1.401l0,0c0-0.774,0.563-1.401,1.258-1.401h19.737C882.537,69.1,883.102,69.726,883.102,70.5
		L883.102,70.5z"/>
</g>
<g>
	<g>
		<path fill="none" stroke="#CCCCCC" stroke-width="1.724" d="M847.133,106.521c0,0.278-0.229,0.507-0.507,0.507h-16.675
			c-0.279,0-0.507-0.229-0.507-0.507V87.276c0-0.279,0.228-0.507,0.507-0.507h16.675c0.278,0,0.507,0.228,0.507,0.507V106.521z"/>
	</g>
	<path fill="none" stroke="#CCCCCC" stroke-width="1.724" d="M849.415,108.429c0,0.774-0.563,1.4-1.259,1.4H828.42
		c-0.694,0-1.258-0.626-1.258-1.4l0,0c0-0.773,0.563-1.4,1.258-1.4h19.736C848.852,107.028,849.415,107.655,849.415,108.429
		L849.415,108.429z"/>
	<g>
		<path fill="none" stroke="#CCCCCC" stroke-width="1.724" d="M880.82,106.521c0,0.278-0.229,0.507-0.508,0.507h-16.675
			c-0.278,0-0.507-0.229-0.507-0.507V87.276c0-0.279,0.229-0.507,0.507-0.507h16.675c0.279,0,0.508,0.228,0.508,0.507V106.521z"/>
	</g>
	<path fill="none" stroke="#CCCCCC" stroke-width="1.724" d="M883.102,108.429c0,0.774-0.564,1.4-1.258,1.4h-19.737
		c-0.694,0-1.258-0.626-1.258-1.4l0,0c0-0.773,0.563-1.4,1.258-1.4h19.737C882.537,107.028,883.102,107.655,883.102,108.429
		L883.102,108.429z"/>
</g>
<g>
	<path fill="none" stroke="#CCCCCC" stroke-width="1.724" d="M880.82,145.958c0,0.278-0.229,0.507-0.508,0.507h-16.675
		c-0.278,0-0.507-0.229-0.507-0.507v-19.243c0-0.279,0.229-0.507,0.507-0.507h16.675c0.279,0,0.508,0.228,0.508,0.507V145.958z"/>
</g>
<path fill="none" stroke="#CCCCCC" stroke-width="1.724" d="M883.102,147.866c0,0.773-0.564,1.4-1.258,1.4h-19.737
	c-0.694,0-1.258-0.627-1.258-1.4l0,0c0-0.773,0.563-1.401,1.258-1.401h19.737C882.537,146.465,883.102,147.093,883.102,147.866
	L883.102,147.866z"/>
<path fill="none" stroke="#CCCCCC" stroke-width="1.612" stroke-miterlimit="10" d="M1032.53,168.464"/>
<path fill="none" stroke="#CCCCCC" stroke-width="0.431" stroke-miterlimit="10" d="M1032.53,168.464"/>
<path fill="none" stroke="#CCCCCC" stroke-width="1.724" d="M1112.735,72.747c0,0.952-0.594,1.724-1.328,1.724h-82.793
	c-0.734,0-1.33-0.771-1.33-1.724l0,0c0-0.953,0.596-1.725,1.33-1.725h82.793C1112.142,71.022,1112.735,71.794,1112.735,72.747
	L1112.735,72.747z"/>
<rect x="1029.548" y="74.874" fill="none" stroke="#CCCCCC" stroke-width="1.724" width="80.926" height="93.59"/>
<g>
	<path fill="none" stroke="#CCCCCC" stroke-width="1.724" stroke-miterlimit="10" d="M1064.079,168.033
		c0,0.236-0.194,0.431-0.431,0.431h-19.545c-0.236,0-0.431-0.194-0.431-0.431v-41.806c0-0.236,0.194-0.431,0.431-0.431h19.545
		c0.236,0,0.431,0.194,0.431,0.431V168.033z"/>
</g>
<circle fill="none" stroke="#CCCCCC" stroke-width="1.724" cx="1059.011" cy="148.604" r="1.473"/>
<g>
	<g>
		<path fill="none" stroke="#CCCCCC" stroke-width="1.724" d="M1062.011,106.521c0,0.278-0.229,0.507-0.507,0.507h-16.676
			c-0.278,0-0.507-0.229-0.507-0.507V87.278c0-0.279,0.229-0.507,0.507-0.507h16.676c0.278,0,0.507,0.228,0.507,0.507V106.521z"/>
	</g>
	<path fill="none" stroke="#CCCCCC" stroke-width="1.724" d="M1064.294,108.43c0,0.773-0.564,1.4-1.258,1.4h-19.737
		c-0.694,0-1.258-0.627-1.258-1.4l0,0c0-0.773,0.563-1.401,1.258-1.401h19.737C1063.729,107.028,1064.294,107.656,1064.294,108.43
		L1064.294,108.43z"/>
	<g>
		<path fill="none" stroke="#CCCCCC" stroke-width="1.724" d="M1095.698,106.521c0,0.278-0.229,0.507-0.507,0.507h-16.676
			c-0.278,0-0.507-0.229-0.507-0.507V87.278c0-0.279,0.229-0.507,0.507-0.507h16.676c0.278,0,0.507,0.228,0.507,0.507V106.521z"/>
	</g>
	<path fill="none" stroke="#CCCCCC" stroke-width="1.724" d="M1097.979,108.43c0,0.773-0.563,1.4-1.258,1.4h-19.738
		c-0.693,0-1.256-0.627-1.256-1.4l0,0c0-0.773,0.562-1.401,1.256-1.401h19.738C1097.416,107.028,1097.979,107.656,1097.979,108.43
		L1097.979,108.43z"/>
</g>
<g>
	<path fill="none" stroke="#CCCCCC" stroke-width="1.724" d="M1095.698,145.959c0,0.279-0.229,0.507-0.507,0.507h-16.676
		c-0.278,0-0.507-0.228-0.507-0.507v-19.244c0-0.279,0.229-0.507,0.507-0.507h16.676c0.278,0,0.507,0.228,0.507,0.507V145.959z"/>
</g>
<path fill="none" stroke="#CCCCCC" stroke-width="1.724" d="M1097.979,147.866c0,0.774-0.563,1.4-1.258,1.4h-19.738
	c-0.693,0-1.256-0.626-1.256-1.4l0,0c0-0.773,0.562-1.4,1.256-1.4h19.738C1097.416,146.466,1097.979,147.093,1097.979,147.866
	L1097.979,147.866z"/>
<path fill="none" stroke="#CCCCCC" stroke-width="1.724" d="M1207.442,34.817c0,0.952-0.596,1.724-1.33,1.724h-82.791
	c-0.734,0-1.33-0.771-1.33-1.724l0,0c0-0.952,0.596-1.724,1.33-1.724h82.791C1206.847,33.094,1207.442,33.865,1207.442,34.817
	L1207.442,34.817z"/>
<rect x="1124.253" y="36.564" fill="none" stroke="#CCCCCC" stroke-width="1.724" width="80.927" height="131.9"/>
<path fill="none" stroke="#CCCCCC" stroke-width="1.612" stroke-miterlimit="10" d="M1128.962,155.049"/>
<g>
	<path fill="none" stroke="#CCCCCC" stroke-width="1.724" stroke-miterlimit="10" d="M1158.786,168.033
		c0,0.236-0.194,0.431-0.431,0.431h-19.545c-0.236,0-0.431-0.194-0.431-0.431v-41.807c0-0.236,0.194-0.431,0.431-0.431h19.545
		c0.236,0,0.431,0.194,0.431,0.431V168.033z"/>
</g>
<circle fill="none" stroke="#CCCCCC" stroke-width="1.724" cx="1153.717" cy="148.603" r="1.473"/>
<path fill="none" stroke="#CCCCCC" stroke-width="0.431" stroke-miterlimit="10" d="M1128.962,148.028"/>
<g>
	<g>
		<path fill="none" stroke="#CCCCCC" stroke-width="1.724" d="M1156.718,68.592c0,0.279-0.229,0.507-0.507,0.507h-16.675
			c-0.279,0-0.507-0.228-0.507-0.507V49.348c0-0.279,0.228-0.507,0.507-0.507h16.675c0.278,0,0.507,0.228,0.507,0.507V68.592z"/>
	</g>
	<path fill="none" stroke="#CCCCCC" stroke-width="1.724" d="M1158.999,70.5c0,0.773-0.562,1.401-1.258,1.401h-19.736
		c-0.695,0-1.258-0.627-1.258-1.401l0,0c0-0.773,0.562-1.4,1.258-1.4h19.736C1158.437,69.099,1158.999,69.726,1158.999,70.5
		L1158.999,70.5z"/>
	<g>
		<path fill="none" stroke="#CCCCCC" stroke-width="1.724" d="M1190.405,68.592c0,0.279-0.229,0.507-0.507,0.507h-16.676
			c-0.278,0-0.507-0.228-0.507-0.507V49.348c0-0.279,0.229-0.507,0.507-0.507h16.676c0.278,0,0.507,0.228,0.507,0.507V68.592z"/>
	</g>
	<path fill="none" stroke="#CCCCCC" stroke-width="1.724" d="M1192.687,70.5c0,0.773-0.564,1.401-1.258,1.401h-19.736
		c-0.695,0-1.258-0.627-1.258-1.401l0,0c0-0.773,0.562-1.4,1.258-1.4h19.736C1192.122,69.099,1192.687,69.726,1192.687,70.5
		L1192.687,70.5z"/>
</g>
<g>
	<g>
		<path fill="none" stroke="#CCCCCC" stroke-width="1.724" d="M1156.718,106.521c0,0.279-0.229,0.507-0.507,0.507h-16.675
			c-0.279,0-0.507-0.228-0.507-0.507V87.276c0-0.279,0.228-0.507,0.507-0.507h16.675c0.278,0,0.507,0.228,0.507,0.507V106.521z"/>
	</g>
	<path fill="none" stroke="#CCCCCC" stroke-width="1.724" d="M1158.999,108.429c0,0.773-0.562,1.4-1.258,1.4h-19.736
		c-0.695,0-1.258-0.627-1.258-1.4l0,0c0-0.773,0.562-1.401,1.258-1.401h19.736C1158.437,107.027,1158.999,107.655,1158.999,108.429
		L1158.999,108.429z"/>
	<g>
		<path fill="none" stroke="#CCCCCC" stroke-width="1.724" d="M1190.405,106.521c0,0.279-0.229,0.507-0.507,0.507h-16.676
			c-0.278,0-0.507-0.228-0.507-0.507V87.276c0-0.279,0.229-0.507,0.507-0.507h16.676c0.278,0,0.507,0.228,0.507,0.507V106.521z"/>
	</g>
	<path fill="none" stroke="#CCCCCC" stroke-width="1.724" d="M1192.687,108.429c0,0.773-0.564,1.4-1.258,1.4h-19.736
		c-0.695,0-1.258-0.627-1.258-1.4l0,0c0-0.773,0.562-1.401,1.258-1.401h19.736C1192.122,107.027,1192.687,107.655,1192.687,108.429
		L1192.687,108.429z"/>
</g>
<g>
	<path fill="none" stroke="#CCCCCC" stroke-width="1.724" d="M1190.405,145.958c0,0.278-0.229,0.507-0.507,0.507h-16.676
		c-0.278,0-0.507-0.229-0.507-0.507v-19.244c0-0.278,0.229-0.507,0.507-0.507h16.676c0.278,0,0.507,0.229,0.507,0.507V145.958z"/>
</g>
<path fill="none" stroke="#CCCCCC" stroke-width="1.724" d="M1192.687,147.866c0,0.773-0.564,1.399-1.258,1.399h-19.736
	c-0.695,0-1.258-0.626-1.258-1.399l0,0c0-0.774,0.562-1.401,1.258-1.401h19.736C1192.122,146.465,1192.687,147.092,1192.687,147.866
	L1192.687,147.866z"/>
<path fill="none" stroke="#CCCCCC" stroke-width="1.724" d="M1423.854,2.585c0,0.953-0.771,1.724-1.723,1.724H1314.81
	c-0.951,0-1.723-0.771-1.723-1.724l0,0c0-0.952,0.771-1.724,1.723-1.724h107.322C1423.083,0.862,1423.854,1.634,1423.854,2.585
	L1423.854,2.585z"/>
<rect x="1315.026" y="3.879" fill="none" stroke="#CCCCCC" stroke-width="1.724" width="106.891" height="164.247"/>
<rect x="1324.661" y="17.549" fill="none" stroke="#CCCCCC" stroke-width="1.293" width="19.826" height="34.911"/>
<line fill="none" stroke="#CCCCCC" stroke-width="1.293" x1="1326.815" y1="17.208" x2="1326.815" y2="52.119"/>
<line fill="none" stroke="#CCCCCC" stroke-width="1.293" x1="1334.573" y1="17.208" x2="1334.573" y2="52.119"/>
<line fill="none" stroke="#CCCCCC" stroke-width="1.293" x1="1334.573" y1="17.208" x2="1334.573" y2="52.119"/>
<line fill="none" stroke="#CCCCCC" stroke-width="1.293" x1="1342.333" y1="17.208" x2="1342.333" y2="52.119"/>
<g>
	<line fill="none" stroke="#CCCCCC" stroke-width="1.2503" x1="1326.798" y1="22.613" x2="1342.313" y2="22.613"/>
	<line fill="none" stroke="#CCCCCC" stroke-width="1.2503" x1="1326.798" y1="27.57" x2="1342.313" y2="27.57"/>
	<line fill="none" stroke="#CCCCCC" stroke-width="1.2503" x1="1326.833" y1="32.526" x2="1342.351" y2="32.526"/>
	<line fill="none" stroke="#CCCCCC" stroke-width="1.2503" x1="1326.833" y1="37.482" x2="1342.351" y2="37.482"/>
	<line fill="none" stroke="#CCCCCC" stroke-width="1.2503" x1="1326.833" y1="42.439" x2="1342.351" y2="42.439"/>
	<line fill="none" stroke="#CCCCCC" stroke-width="1.2503" x1="1326.833" y1="47.396" x2="1342.351" y2="47.396"/>
</g>
<rect x="1358.837" y="17.549" fill="none" stroke="#CCCCCC" stroke-width="1.293" width="19.826" height="34.911"/>
<line fill="none" stroke="#CCCCCC" stroke-width="1.293" x1="1360.991" y1="17.208" x2="1360.991" y2="52.119"/>
<line fill="none" stroke="#CCCCCC" stroke-width="1.293" x1="1368.749" y1="17.208" x2="1368.749" y2="52.119"/>
<line fill="none" stroke="#CCCCCC" stroke-width="1.293" x1="1368.749" y1="17.208" x2="1368.749" y2="52.119"/>
<line fill="none" stroke="#CCCCCC" stroke-width="1.293" x1="1376.507" y1="17.208" x2="1376.507" y2="52.119"/>
<g>
	<line fill="none" stroke="#CCCCCC" stroke-width="1.2503" x1="1360.974" y1="22.613" x2="1376.489" y2="22.613"/>
	<line fill="none" stroke="#CCCCCC" stroke-width="1.2503" x1="1360.974" y1="27.57" x2="1376.489" y2="27.57"/>
	<line fill="none" stroke="#CCCCCC" stroke-width="1.2503" x1="1361.009" y1="32.526" x2="1376.524" y2="32.526"/>
	<line fill="none" stroke="#CCCCCC" stroke-width="1.2503" x1="1361.009" y1="37.482" x2="1376.524" y2="37.482"/>
	<line fill="none" stroke="#CCCCCC" stroke-width="1.2503" x1="1361.009" y1="42.439" x2="1376.524" y2="42.439"/>
	<line fill="none" stroke="#CCCCCC" stroke-width="1.2503" x1="1361.009" y1="47.396" x2="1376.524" y2="47.396"/>
</g>
<rect x="1392.454" y="17.549" fill="none" stroke="#CCCCCC" stroke-width="1.293" width="19.828" height="34.911"/>
<line fill="none" stroke="#CCCCCC" stroke-width="1.293" x1="1394.61" y1="17.208" x2="1394.61" y2="52.119"/>
<line fill="none" stroke="#CCCCCC" stroke-width="1.293" x1="1402.368" y1="17.208" x2="1402.368" y2="52.119"/>
<line fill="none" stroke="#CCCCCC" stroke-width="1.293" x1="1402.368" y1="17.208" x2="1402.368" y2="52.119"/>
<line fill="none" stroke="#CCCCCC" stroke-width="1.293" x1="1410.126" y1="17.208" x2="1410.126" y2="52.119"/>
<g>
	<line fill="none" stroke="#CCCCCC" stroke-width="1.2503" x1="1394.593" y1="22.613" x2="1410.108" y2="22.613"/>
	<line fill="none" stroke="#CCCCCC" stroke-width="1.2503" x1="1394.593" y1="27.57" x2="1410.108" y2="27.57"/>
	<line fill="none" stroke="#CCCCCC" stroke-width="1.2503" x1="1394.628" y1="32.526" x2="1410.144" y2="32.526"/>
	<line fill="none" stroke="#CCCCCC" stroke-width="1.2503" x1="1394.628" y1="37.482" x2="1410.144" y2="37.482"/>
	<line fill="none" stroke="#CCCCCC" stroke-width="1.2503" x1="1394.628" y1="42.439" x2="1410.144" y2="42.439"/>
	<line fill="none" stroke="#CCCCCC" stroke-width="1.2503" x1="1394.628" y1="47.396" x2="1410.144" y2="47.396"/>
</g>
<rect x="1324.661" y="66.702" fill="none" stroke="#CCCCCC" stroke-width="1.293" width="19.826" height="34.912"/>
<line fill="none" stroke="#CCCCCC" stroke-width="1.293" x1="1326.815" y1="66.361" x2="1326.815" y2="101.271"/>
<line fill="none" stroke="#CCCCCC" stroke-width="1.293" x1="1334.573" y1="66.361" x2="1334.573" y2="101.271"/>
<line fill="none" stroke="#CCCCCC" stroke-width="1.293" x1="1334.573" y1="66.361" x2="1334.573" y2="101.271"/>
<line fill="none" stroke="#CCCCCC" stroke-width="1.293" x1="1342.333" y1="66.361" x2="1342.333" y2="101.271"/>
<g>
	<line fill="none" stroke="#CCCCCC" stroke-width="1.2503" x1="1326.798" y1="71.766" x2="1342.313" y2="71.766"/>
	<line fill="none" stroke="#CCCCCC" stroke-width="1.2503" x1="1326.798" y1="76.723" x2="1342.313" y2="76.723"/>
	<line fill="none" stroke="#CCCCCC" stroke-width="1.2503" x1="1326.833" y1="81.68" x2="1342.351" y2="81.68"/>
	<line fill="none" stroke="#CCCCCC" stroke-width="1.2503" x1="1326.833" y1="86.635" x2="1342.351" y2="86.635"/>
	<line fill="none" stroke="#CCCCCC" stroke-width="1.2503" x1="1326.833" y1="91.592" x2="1342.351" y2="91.592"/>
	<line fill="none" stroke="#CCCCCC" stroke-width="1.2503" x1="1326.833" y1="96.549" x2="1342.351" y2="96.549"/>
</g>
<rect x="1358.837" y="66.702" fill="none" stroke="#CCCCCC" stroke-width="1.293" width="19.826" height="34.912"/>
<line fill="none" stroke="#CCCCCC" stroke-width="1.293" x1="1360.991" y1="66.361" x2="1360.991" y2="101.271"/>
<line fill="none" stroke="#CCCCCC" stroke-width="1.293" x1="1368.749" y1="66.361" x2="1368.749" y2="101.271"/>
<line fill="none" stroke="#CCCCCC" stroke-width="1.293" x1="1368.749" y1="66.361" x2="1368.749" y2="101.271"/>
<line fill="none" stroke="#CCCCCC" stroke-width="1.293" x1="1376.507" y1="66.361" x2="1376.507" y2="101.271"/>
<g>
	<line fill="none" stroke="#CCCCCC" stroke-width="1.2503" x1="1360.974" y1="71.766" x2="1376.489" y2="71.766"/>
	<line fill="none" stroke="#CCCCCC" stroke-width="1.2503" x1="1360.974" y1="76.723" x2="1376.489" y2="76.723"/>
	<line fill="none" stroke="#CCCCCC" stroke-width="1.2503" x1="1361.009" y1="81.68" x2="1376.524" y2="81.68"/>
	<line fill="none" stroke="#CCCCCC" stroke-width="1.2503" x1="1361.009" y1="86.635" x2="1376.524" y2="86.635"/>
	<line fill="none" stroke="#CCCCCC" stroke-width="1.2503" x1="1361.009" y1="91.592" x2="1376.524" y2="91.592"/>
	<line fill="none" stroke="#CCCCCC" stroke-width="1.2503" x1="1361.009" y1="96.549" x2="1376.524" y2="96.549"/>
</g>
<rect x="1392.454" y="66.702" fill="none" stroke="#CCCCCC" stroke-width="1.293" width="19.828" height="34.912"/>
<line fill="none" stroke="#CCCCCC" stroke-width="1.293" x1="1394.61" y1="66.361" x2="1394.61" y2="101.271"/>
<line fill="none" stroke="#CCCCCC" stroke-width="1.293" x1="1402.368" y1="66.361" x2="1402.368" y2="101.271"/>
<line fill="none" stroke="#CCCCCC" stroke-width="1.293" x1="1402.368" y1="66.361" x2="1402.368" y2="101.271"/>
<line fill="none" stroke="#CCCCCC" stroke-width="1.293" x1="1410.126" y1="66.361" x2="1410.126" y2="101.271"/>
<g>
	<line fill="none" stroke="#CCCCCC" stroke-width="1.2503" x1="1394.593" y1="71.766" x2="1410.108" y2="71.766"/>
	<line fill="none" stroke="#CCCCCC" stroke-width="1.2503" x1="1394.593" y1="76.723" x2="1410.108" y2="76.723"/>
	<line fill="none" stroke="#CCCCCC" stroke-width="1.2503" x1="1394.628" y1="81.68" x2="1410.144" y2="81.68"/>
	<line fill="none" stroke="#CCCCCC" stroke-width="1.2503" x1="1394.628" y1="86.635" x2="1410.144" y2="86.635"/>
	<line fill="none" stroke="#CCCCCC" stroke-width="1.2503" x1="1394.628" y1="91.592" x2="1410.144" y2="91.592"/>
	<line fill="none" stroke="#CCCCCC" stroke-width="1.2503" x1="1394.628" y1="96.549" x2="1410.144" y2="96.549"/>
</g>
<path fill="none" stroke="#CCCCCC" stroke-width="1.724" stroke-miterlimit="10" d="M1368.472,153.025"/>
<g>
	<g>
		<g>
			<path fill="none" stroke="#CCCCCC" stroke-width="1.724" d="M1388.878,167.695c0,0.236-0.194,0.431-0.431,0.431h-39.951
				c-0.236,0-0.431-0.194-0.431-0.431V125.89c0-0.236,0.194-0.431,0.431-0.431h39.951c0.236,0,0.431,0.194,0.431,0.431V167.695z"/>
		</g>
		<g>
			<line fill="none" stroke="#CCCCCC" stroke-width="1.724" x1="1368.472" y1="125.459" x2="1368.472" y2="168.126"/>
		</g>
		<g>
			<circle fill="none" stroke="#CCCCCC" stroke-width="1.724" cx="1373.316" cy="148.268" r="1.474"/>
		</g>
		<g>
			<circle fill="none" stroke="#CCCCCC" stroke-width="1.724" cx="1363.402" cy="148.268" r="1.474"/>
		</g>
	</g>
</g>
<path fill="none" stroke="#CCCCCC" stroke-width="1.724" stroke-miterlimit="10" d="M1368.472,146.003"/>
<path fill="none" stroke="#CCCCCC" stroke-width="1.724" d="M1303.261,34.48c0,0.952-0.596,1.724-1.33,1.724h-82.791
	c-0.734,0-1.331-0.772-1.331-1.724l0,0c0-0.952,0.597-1.724,1.331-1.724h82.791C1302.665,32.757,1303.261,33.528,1303.261,34.48
	L1303.261,34.48z"/>
<rect x="1220.071" y="36.227" fill="none" stroke="#CCCCCC" stroke-width="1.724" width="80.926" height="131.899"/>
<path fill="none" stroke="#CCCCCC" stroke-width="1.612" stroke-miterlimit="10" d="M1224.778,154.714"/>
<g>
	<path fill="none" stroke="#CCCCCC" stroke-width="1.724" stroke-miterlimit="10" d="M1254.604,167.695
		c0,0.236-0.194,0.431-0.431,0.431h-19.545c-0.236,0-0.431-0.194-0.431-0.431V125.89c0-0.236,0.194-0.431,0.431-0.431h19.545
		c0.236,0,0.431,0.194,0.431,0.431V167.695z"/>
</g>
<circle fill="none" stroke="#CCCCCC" stroke-width="1.724" cx="1249.536" cy="148.268" r="1.473"/>
<path fill="none" stroke="#CCCCCC" stroke-width="0.431" stroke-miterlimit="10" d="M1224.778,147.691"/>
<g>
	<g>
		<path fill="none" stroke="#CCCCCC" stroke-width="1.724" d="M1252.536,68.256c0,0.279-0.229,0.507-0.507,0.507h-16.676
			c-0.278,0-0.507-0.228-0.507-0.507V49.012c0-0.279,0.229-0.507,0.507-0.507h16.676c0.278,0,0.507,0.228,0.507,0.507V68.256z"/>
	</g>
	<path fill="none" stroke="#CCCCCC" stroke-width="1.724" d="M1254.819,70.164c0,0.773-0.564,1.401-1.258,1.401h-19.738
		c-0.695,0-1.258-0.627-1.258-1.401l0,0c0-0.774,0.562-1.401,1.258-1.401h19.738C1254.255,68.763,1254.819,69.389,1254.819,70.164
		L1254.819,70.164z"/>
	<g>
		<path fill="none" stroke="#CCCCCC" stroke-width="1.724" d="M1286.224,68.256c0,0.279-0.229,0.507-0.507,0.507h-16.676
			c-0.278,0-0.507-0.228-0.507-0.507V49.012c0-0.279,0.229-0.507,0.507-0.507h16.676c0.278,0,0.507,0.228,0.507,0.507V68.256z"/>
	</g>
	<path fill="none" stroke="#CCCCCC" stroke-width="1.724" d="M1288.505,70.164c0,0.773-0.564,1.401-1.258,1.401h-19.736
		c-0.695,0-1.26-0.627-1.26-1.401l0,0c0-0.774,0.564-1.401,1.26-1.401h19.736C1287.94,68.763,1288.505,69.389,1288.505,70.164
		L1288.505,70.164z"/>
</g>
<g>
	<g>
		<path fill="none" stroke="#CCCCCC" stroke-width="1.724" d="M1252.536,106.185c0,0.279-0.229,0.507-0.507,0.507h-16.676
			c-0.278,0-0.507-0.228-0.507-0.507V86.939c0-0.278,0.229-0.507,0.507-0.507h16.676c0.278,0,0.507,0.229,0.507,0.507V106.185z"/>
	</g>
	<path fill="none" stroke="#CCCCCC" stroke-width="1.724" d="M1254.819,108.092c0,0.773-0.564,1.4-1.258,1.4h-19.738
		c-0.695,0-1.258-0.627-1.258-1.4l0,0c0-0.773,0.562-1.4,1.258-1.4h19.738C1254.255,106.691,1254.819,107.318,1254.819,108.092
		L1254.819,108.092z"/>
	<g>
		<path fill="none" stroke="#CCCCCC" stroke-width="1.724" d="M1286.224,106.185c0,0.279-0.229,0.507-0.507,0.507h-16.676
			c-0.278,0-0.507-0.228-0.507-0.507V86.939c0-0.278,0.229-0.507,0.507-0.507h16.676c0.278,0,0.507,0.229,0.507,0.507V106.185z"/>
	</g>
	<path fill="none" stroke="#CCCCCC" stroke-width="1.724" d="M1288.505,108.092c0,0.773-0.564,1.4-1.258,1.4h-19.736
		c-0.695,0-1.26-0.627-1.26-1.4l0,0c0-0.773,0.564-1.4,1.26-1.4h19.736C1287.94,106.691,1288.505,107.318,1288.505,108.092
		L1288.505,108.092z"/>
</g>
<g>
	<path fill="none" stroke="#CCCCCC" stroke-width="1.724" d="M1286.224,145.622c0,0.278-0.229,0.507-0.507,0.507h-16.676
		c-0.278,0-0.507-0.229-0.507-0.507v-19.243c0-0.279,0.229-0.507,0.507-0.507h16.676c0.278,0,0.507,0.228,0.507,0.507V145.622z"/>
</g>
<path fill="none" stroke="#CCCCCC" stroke-width="1.724" d="M1288.505,147.529c0,0.773-0.564,1.4-1.258,1.4h-19.736
	c-0.695,0-1.26-0.627-1.26-1.4l0,0c0-0.773,0.564-1.4,1.26-1.4h19.736C1287.94,146.129,1288.505,146.756,1288.505,147.529
	L1288.505,147.529z"/>
<path fill="none" stroke="#CCCCCC" stroke-width="1.612" stroke-miterlimit="10" d="M1437.933,168.126"/>
<path fill="none" stroke="#CCCCCC" stroke-width="0.431" stroke-miterlimit="10" d="M1437.933,168.126"/>
<path fill="none" stroke="#CCCCCC" stroke-width="1.724" d="M1518.138,72.41c0,0.952-0.594,1.724-1.328,1.724h-82.793
	c-0.734,0-1.328-0.772-1.328-1.724l0,0c0-0.953,0.594-1.725,1.328-1.725h82.793C1517.544,70.686,1518.138,71.457,1518.138,72.41
	L1518.138,72.41z"/>
<rect x="1434.95" y="74.537" fill="none" stroke="#CCCCCC" stroke-width="1.724" width="80.926" height="93.589"/>
<g>
	<path fill="none" stroke="#CCCCCC" stroke-width="1.724" stroke-miterlimit="10" d="M1469.481,167.695
		c0,0.236-0.194,0.431-0.431,0.431h-19.545c-0.236,0-0.431-0.194-0.431-0.431v-41.804c0-0.236,0.194-0.431,0.431-0.431h19.545
		c0.236,0,0.431,0.194,0.431,0.431V167.695z"/>
</g>
<circle fill="none" stroke="#CCCCCC" stroke-width="1.724" cx="1464.413" cy="148.268" r="1.473"/>
<g>
	<g>
		<path fill="none" stroke="#CCCCCC" stroke-width="1.724" d="M1467.415,106.185c0,0.279-0.229,0.507-0.507,0.507h-16.676
			c-0.278,0-0.507-0.228-0.507-0.507V86.941c0-0.278,0.229-0.507,0.507-0.507h16.676c0.278,0,0.507,0.229,0.507,0.507V106.185z"/>
	</g>
	<path fill="none" stroke="#CCCCCC" stroke-width="1.724" d="M1469.696,108.092c0,0.773-0.562,1.4-1.258,1.4h-19.736
		c-0.695,0-1.258-0.627-1.258-1.4l0,0c0-0.773,0.562-1.4,1.258-1.4h19.736C1469.134,106.691,1469.696,107.318,1469.696,108.092
		L1469.696,108.092z"/>
	<g>
		<path fill="none" stroke="#CCCCCC" stroke-width="1.724" d="M1501.101,106.185c0,0.279-0.229,0.507-0.507,0.507h-16.676
			c-0.278,0-0.507-0.228-0.507-0.507V86.941c0-0.278,0.229-0.507,0.507-0.507h16.676c0.278,0,0.507,0.229,0.507,0.507V106.185z"/>
	</g>
	<path fill="none" stroke="#CCCCCC" stroke-width="1.724" d="M1503.382,108.092c0,0.773-0.564,1.4-1.258,1.4h-19.738
		c-0.693,0-1.256-0.627-1.256-1.4l0,0c0-0.773,0.562-1.4,1.256-1.4h19.738C1502.817,106.691,1503.382,107.318,1503.382,108.092
		L1503.382,108.092z"/>
</g>
<g>
	<path fill="none" stroke="#CCCCCC" stroke-width="1.724" d="M1501.101,145.622c0,0.278-0.229,0.507-0.507,0.507h-16.676
		c-0.278,0-0.507-0.229-0.507-0.507v-19.243c0-0.279,0.229-0.507,0.507-0.507h16.676c0.278,0,0.507,0.228,0.507,0.507V145.622z"/>
</g>
<path fill="none" stroke="#CCCCCC" stroke-width="1.724" d="M1503.382,147.529c0,0.773-0.564,1.4-1.258,1.4h-19.738
	c-0.693,0-1.256-0.627-1.256-1.4l0,0c0-0.773,0.562-1.4,1.256-1.4h19.738C1502.817,146.129,1503.382,146.756,1503.382,147.529
	L1503.382,147.529z"/>
<path fill="none" stroke="#CCCCCC" stroke-width="1.724" d="M1612.845,34.48c0,0.952-0.594,1.724-1.328,1.724h-82.793
	c-0.734,0-1.33-0.772-1.33-1.724l0,0c0-0.952,0.596-1.724,1.33-1.724h82.793C1612.251,32.757,1612.845,33.528,1612.845,34.48
	L1612.845,34.48z"/>
<rect x="1529.655" y="36.227" fill="none" stroke="#CCCCCC" stroke-width="1.724" width="80.928" height="131.899"/>
<path fill="none" stroke="#CCCCCC" stroke-width="1.612" stroke-miterlimit="10" d="M1534.364,154.712"/>
<g>
	<path fill="none" stroke="#CCCCCC" stroke-width="1.724" stroke-miterlimit="10" d="M1564.188,167.695
		c0,0.236-0.194,0.431-0.431,0.431h-19.545c-0.236,0-0.431-0.194-0.431-0.431V125.89c0-0.236,0.194-0.431,0.431-0.431h19.545
		c0.236,0,0.431,0.194,0.431,0.431V167.695z"/>
</g>
<circle fill="none" stroke="#CCCCCC" stroke-width="1.724" cx="1559.12" cy="148.266" r="1.473"/>
<path fill="none" stroke="#CCCCCC" stroke-width="0.431" stroke-miterlimit="10" d="M1534.364,147.691"/>
<g>
	<g>
		<path fill="none" stroke="#CCCCCC" stroke-width="1.724" d="M1562.12,68.255c0,0.279-0.229,0.507-0.507,0.507h-16.674
			c-0.278,0-0.507-0.228-0.507-0.507V49.011c0-0.279,0.229-0.507,0.507-0.507h16.674c0.278,0,0.507,0.228,0.507,0.507V68.255z"/>
	</g>
	<path fill="none" stroke="#CCCCCC" stroke-width="1.724" d="M1564.403,70.163c0,0.773-0.564,1.401-1.258,1.401h-19.736
		c-0.695,0-1.258-0.627-1.258-1.401l0,0c0-0.773,0.562-1.401,1.258-1.401h19.736C1563.839,68.762,1564.403,69.389,1564.403,70.163
		L1564.403,70.163z"/>
	<g>
		<path fill="none" stroke="#CCCCCC" stroke-width="1.724" d="M1595.808,68.255c0,0.279-0.229,0.507-0.507,0.507h-16.676
			c-0.278,0-0.507-0.228-0.507-0.507V49.011c0-0.279,0.229-0.507,0.507-0.507h16.676c0.278,0,0.507,0.228,0.507,0.507V68.255z"/>
	</g>
	<path fill="none" stroke="#CCCCCC" stroke-width="1.724" d="M1598.089,70.163c0,0.773-0.564,1.401-1.258,1.401h-19.736
		c-0.695,0-1.258-0.627-1.258-1.401l0,0c0-0.773,0.562-1.401,1.258-1.401h19.736C1597.524,68.762,1598.089,69.389,1598.089,70.163
		L1598.089,70.163z"/>
</g>
<g>
	<g>
		<path fill="none" stroke="#CCCCCC" stroke-width="1.724" d="M1562.12,106.185c0,0.279-0.229,0.507-0.507,0.507h-16.674
			c-0.278,0-0.507-0.228-0.507-0.507V86.939c0-0.278,0.229-0.507,0.507-0.507h16.674c0.278,0,0.507,0.229,0.507,0.507V106.185z"/>
	</g>
	<path fill="none" stroke="#CCCCCC" stroke-width="1.724" d="M1564.403,108.092c0,0.773-0.564,1.4-1.258,1.4h-19.736
		c-0.695,0-1.258-0.627-1.258-1.4l0,0c0-0.773,0.562-1.4,1.258-1.4h19.736C1563.839,106.691,1564.403,107.318,1564.403,108.092
		L1564.403,108.092z"/>
	<g>
		<path fill="none" stroke="#CCCCCC" stroke-width="1.724" d="M1595.808,106.185c0,0.279-0.229,0.507-0.507,0.507h-16.676
			c-0.278,0-0.507-0.228-0.507-0.507V86.939c0-0.278,0.229-0.507,0.507-0.507h16.676c0.278,0,0.507,0.229,0.507,0.507V106.185z"/>
	</g>
	<path fill="none" stroke="#CCCCCC" stroke-width="1.724" d="M1598.089,108.092c0,0.773-0.564,1.4-1.258,1.4h-19.736
		c-0.695,0-1.258-0.627-1.258-1.4l0,0c0-0.773,0.562-1.4,1.258-1.4h19.736C1597.524,106.691,1598.089,107.318,1598.089,108.092
		L1598.089,108.092z"/>
</g>
<g>
	<path fill="none" stroke="#CCCCCC" stroke-width="1.724" d="M1595.808,145.622c0,0.278-0.229,0.507-0.507,0.507h-16.676
		c-0.278,0-0.507-0.229-0.507-0.507v-19.245c0-0.279,0.229-0.507,0.507-0.507h16.676c0.278,0,0.507,0.228,0.507,0.507V145.622z"/>
</g>
<path fill="none" stroke="#CCCCCC" stroke-width="1.724" d="M1598.089,147.529c0,0.773-0.564,1.399-1.258,1.399h-19.736
	c-0.695,0-1.258-0.626-1.258-1.399l0,0c0-0.775,0.562-1.4,1.258-1.4h19.736C1597.524,146.129,1598.089,146.754,1598.089,147.529
	L1598.089,147.529z"/>
</svg>
