<?xml version="1.0" encoding="utf-8"?>
<!-- Generator: Adobe Illustrator 16.0.0, SVG Export Plug-In . SVG Version: 6.00 Build 0)  -->
<!DOCTYPE svg PUBLIC "-//W3C//DTD SVG 1.1//EN" "http://www.w3.org/Graphics/SVG/1.1/DTD/svg11.dtd">
<svg version="1.1" id="Layer_1" xmlns="http://www.w3.org/2000/svg" xmlns:xlink="http://www.w3.org/1999/xlink" x="0px" y="0px"
	 width="45.393px" height="69.5px" viewBox="0 0 45.393 69.5" enable-background="new 0 0 45.393 69.5" xml:space="preserve">
<g>
	<path fill="#F7941E" d="M22.697,0C10.182,0,0,10.181,0,22.695c0,8.45,4.603,16.066,12.055,20.026v16.134
		c0,5.869,4.774,10.645,10.643,10.645S33.34,64.725,33.34,58.855V42.722c7.451-3.96,12.053-11.577,12.053-20.026
		C45.393,10.181,35.212,0,22.697,0z M14.055,45.393H31.34v3.223H14.055V45.393z M14.055,50.615H31.34v3.221H14.055V50.615z
		 M14.055,58.855v-3.02H31.34v3.02c0,0.068-0.009,0.135-0.01,0.203H14.064C14.063,58.99,14.055,58.924,14.055,58.855z M22.697,67.5
		c-4.003,0-7.369-2.74-8.348-6.441h16.695C30.066,64.76,26.7,67.5,22.697,67.5z M31.895,41.216c-0.34,0.169-0.555,0.516-0.555,0.896
		v1.281h-7.643V30.928h8.643c3.209,0,5.82-2.612,5.82-5.822c0-3.209-2.611-5.82-5.82-5.82c-3.21,0-5.822,2.611-5.822,5.82
		c0,1.463,0.547,2.798,1.441,3.822h-5.262h-5.264c0.895-1.024,1.441-2.359,1.441-3.822c0-3.209-2.611-5.82-5.82-5.82
		c-3.21,0-5.822,2.611-5.822,5.82c0,3.21,2.612,5.822,5.822,5.822h8.643v12.465h-7.643v-1.281c0-0.38-0.215-0.727-0.555-0.896
		C6.406,37.686,2,30.589,2,22.695C2,11.284,11.285,2,22.697,2c11.411,0,20.695,9.284,20.695,20.695
		C43.393,30.589,38.986,37.686,31.895,41.216z M28.518,25.105c0-2.106,1.715-3.82,3.822-3.82c2.106,0,3.82,1.714,3.82,3.82
		c0,2.107-1.714,3.822-3.82,3.822C30.232,28.928,28.518,27.213,28.518,25.105z M13.055,28.928c-2.107,0-3.822-1.715-3.822-3.822
		c0-2.106,1.715-3.82,3.822-3.82c2.106,0,3.82,1.714,3.82,3.82C16.875,27.213,15.161,28.928,13.055,28.928z"/>
</g>
</svg>
