<?xml version="1.0" encoding="utf-8"?>
<!-- Generator: Adobe Illustrator 16.0.0, SVG Export Plug-In . SVG Version: 6.00 Build 0)  -->
<!DOCTYPE svg PUBLIC "-//W3C//DTD SVG 1.1//EN" "http://www.w3.org/Graphics/SVG/1.1/DTD/svg11.dtd">
<svg version="1.1" id="Layer_1" xmlns="http://www.w3.org/2000/svg" xmlns:xlink="http://www.w3.org/1999/xlink" x="0px" y="0px"
	 width="59px" height="35.096px" viewBox="0 0 59 35.096" enable-background="new 0 0 59 35.096" xml:space="preserve">
<g>
	<path fill="#AACFF4" d="M59,24.903c0-3.877-2.188-7.39-5.623-9.112C52.49,6.889,44.941,0,35.936,0
		c-7.932,0-14.903,5.401-16.943,12.979c-5.916-0.88-11.039,3.471-11.588,9.086H6.516C2.923,22.064,0,24.987,0,28.58
		s2.923,6.516,6.516,6.516h42.291C54.428,35.096,59,30.523,59,24.903z M2,28.58c0-2.49,2.025-4.516,4.516-4.516h1.84
		c0.553,0,1-0.447,1-1c0-4.519,3.676-8.194,8.193-8.194c0.633,0,1.291,0.083,1.955,0.246c0.264,0.062,0.542,0.019,0.771-0.126
		s0.391-0.376,0.445-0.642C22.217,7.193,28.615,2,35.936,2c8.156,0,14.961,6.377,15.494,14.518c0.025,0.375,0.258,0.705,0.604,0.854
		C55.051,18.666,57,21.622,57,24.903c0,4.518-3.676,8.192-8.193,8.192H6.516C4.025,33.096,2,31.07,2,28.58z"/>
</g>
</svg>
