<?xml version="1.0" encoding="utf-8"?>
<!-- Generator: Adobe Illustrator 16.0.0, SVG Export Plug-In . SVG Version: 6.00 Build 0)  -->
<!DOCTYPE svg PUBLIC "-//W3C//DTD SVG 1.1//EN" "http://www.w3.org/Graphics/SVG/1.1/DTD/svg11.dtd">
<svg version="1.1" id="Layer_1" xmlns="http://www.w3.org/2000/svg" xmlns:xlink="http://www.w3.org/1999/xlink" x="0px" y="0px"
	 width="71.04px" height="35.93px" viewBox="0 0 71.04 35.93" enable-background="new 0 0 71.04 35.93" xml:space="preserve">
<g>
	<path fill="#8DC63F" d="M16.129,9.774c0.427-0.436,0.911-0.929,0.911-1.604s-0.484-1.168-0.911-1.604
		c-0.24-0.244-0.487-0.497-0.55-0.689c-0.069-0.212-0.016-0.575,0.034-0.926c0.085-0.592,0.182-1.263-0.201-1.79
		c-0.387-0.53-1.059-0.646-1.651-0.746c-0.347-0.06-0.705-0.121-0.88-0.248c-0.17-0.124-0.336-0.443-0.498-0.751
		c-0.28-0.537-0.598-1.145-1.23-1.351c-0.131-0.042-0.271-0.064-0.416-0.064c-0.465,0-0.903,0.216-1.327,0.425
		C9.086,0.585,8.752,0.75,8.52,0.75c-0.231,0-0.566-0.165-0.888-0.324C7.208,0.217,6.769,0.001,6.304,0.001
		c-0.145,0-0.285,0.022-0.416,0.064c-0.632,0.206-0.95,0.813-1.23,1.35C4.497,1.724,4.33,2.042,4.159,2.167
		c-0.175,0.128-0.534,0.189-0.88,0.249C2.686,2.517,2.015,2.631,1.629,3.162C1.246,3.687,1.342,4.358,1.427,4.95
		C1.478,5.301,1.53,5.665,1.461,5.876c-0.062,0.193-0.31,0.446-0.549,0.69C0.484,7.001,0,7.495,0,8.17s0.484,1.168,0.912,1.604
		c0.239,0.244,0.487,0.497,0.549,0.69c0.069,0.211,0.017,0.575-0.034,0.926c-0.085,0.592-0.182,1.263,0.201,1.789
		c0.386,0.531,1.058,0.646,1.65,0.747c0.347,0.06,0.705,0.121,0.88,0.248c0.171,0.125,0.337,0.443,0.499,0.751
		c0.28,0.537,0.597,1.145,1.229,1.35c0.132,0.043,0.272,0.064,0.417,0.064h0c0.465,0,0.903-0.216,1.327-0.425
		c0.114-0.056,0.228-0.11,0.339-0.16v10.714c-1.326-2.186-3.721-3.653-6.458-3.653c-0.304,0-0.55,0.246-0.55,0.55v5.006
		c0,4.168,3.391,7.559,7.558,7.559s7.558-3.391,7.558-7.559v-5.006c0-0.304-0.246-0.55-0.55-0.55c-2.737,0-5.132,1.467-6.458,3.653
		V15.754c0.111,0.05,0.226,0.104,0.34,0.161c0.424,0.208,0.862,0.424,1.327,0.424c0.145,0,0.285-0.022,0.417-0.064
		c0.632-0.206,0.949-0.814,1.229-1.351c0.161-0.308,0.327-0.627,0.498-0.751c0.175-0.127,0.534-0.189,0.88-0.249
		c0.593-0.101,1.264-0.216,1.651-0.746c0.383-0.526,0.287-1.198,0.201-1.79c-0.05-0.351-0.103-0.714-0.034-0.925
		C15.642,10.271,15.889,10.018,16.129,9.774z M14.525,11.545c0.056,0.385,0.118,0.821-0.002,0.986
		c-0.123,0.169-0.561,0.244-0.947,0.311c-0.471,0.081-0.959,0.164-1.343,0.443c-0.378,0.276-0.605,0.71-0.825,1.131
		c-0.183,0.35-0.391,0.747-0.595,0.814c-0.177,0.057-0.564-0.126-0.918-0.301c-0.437-0.215-0.888-0.437-1.376-0.437
		c-0.487,0-0.938,0.222-1.374,0.437c-0.355,0.175-0.739,0.359-0.92,0.301c-0.204-0.067-0.412-0.463-0.594-0.813
		c-0.219-0.421-0.446-0.855-0.825-1.132c-0.383-0.279-0.871-0.362-1.342-0.442c-0.386-0.066-0.823-0.141-0.946-0.311
		c-0.12-0.165-0.058-0.601-0.002-0.985c0.068-0.476,0.139-0.968-0.009-1.423c-0.143-0.439-0.482-0.785-0.811-1.12
		C1.416,8.719,1.099,8.396,1.099,8.17s0.317-0.549,0.597-0.834c0.329-0.334,0.668-0.681,0.811-1.12
		c0.148-0.455,0.077-0.947,0.009-1.423C2.46,4.409,2.397,3.974,2.518,3.809c0.123-0.169,0.561-0.244,0.946-0.31
		c0.472-0.081,0.959-0.164,1.342-0.443c0.38-0.276,0.607-0.71,0.827-1.131c0.183-0.35,0.391-0.747,0.595-0.813
		c0.177-0.057,0.564,0.127,0.918,0.301C7.582,1.627,8.033,1.849,8.52,1.849c0.488,0,0.939-0.222,1.376-0.437
		c0.354-0.175,0.739-0.358,0.918-0.301c0.204,0.067,0.412,0.464,0.595,0.814c0.219,0.42,0.446,0.855,0.825,1.131
		c0.383,0.279,0.871,0.362,1.342,0.442c0.386,0.066,0.824,0.141,0.947,0.31c0.12,0.165,0.057,0.601,0.002,0.986
		c-0.069,0.476-0.14,0.967,0.008,1.422c0.143,0.439,0.482,0.785,0.811,1.12c0.28,0.285,0.597,0.608,0.597,0.834
		s-0.317,0.549-0.597,0.834c-0.329,0.334-0.668,0.681-0.811,1.12C14.386,10.579,14.457,11.07,14.525,11.545z M14.979,23.938v4.433
		c0,3.375-2.604,6.151-5.909,6.43v-4.428C9.07,26.998,11.674,24.218,14.979,23.938z M2.062,23.938
		c3.305,0.28,5.909,3.06,5.909,6.436v4.428c-3.304-0.279-5.909-3.055-5.909-6.43V23.938z"/>
	<path fill="#8DC63F" d="M8.52,5.146c-1.667,0-3.023,1.357-3.023,3.023c0,1.667,1.357,3.023,3.023,3.023s3.023-1.356,3.023-3.023
		C11.543,6.503,10.187,5.146,8.52,5.146z M8.52,10.094c-1.061,0-1.924-0.863-1.924-1.924S7.459,6.246,8.52,6.246
		s1.924,0.863,1.924,1.924S9.581,10.094,8.52,10.094z"/>
</g>
<g>
	<path fill="#8DC63F" d="M34.129,9.773c0.427-0.436,0.911-0.929,0.911-1.604s-0.484-1.168-0.911-1.604
		c-0.239-0.244-0.487-0.497-0.55-0.689c-0.068-0.212-0.016-0.575,0.034-0.926c0.085-0.592,0.183-1.263-0.2-1.79
		c-0.388-0.53-1.059-0.646-1.652-0.746c-0.346-0.06-0.704-0.121-0.879-0.248c-0.171-0.124-0.337-0.443-0.498-0.751
		c-0.28-0.537-0.598-1.145-1.23-1.351C29.022,0.022,28.882,0,28.737,0c-0.465,0-0.903,0.216-1.327,0.425
		c-0.324,0.159-0.658,0.324-0.89,0.324c-0.231,0-0.566-0.165-0.888-0.324C25.208,0.217,24.769,0,24.304,0
		c-0.145,0-0.285,0.022-0.416,0.064c-0.632,0.206-0.95,0.813-1.23,1.35c-0.161,0.308-0.328,0.627-0.499,0.751
		c-0.175,0.128-0.534,0.189-0.88,0.249c-0.592,0.101-1.264,0.216-1.649,0.746c-0.384,0.525-0.288,1.196-0.202,1.789
		c0.051,0.351,0.103,0.714,0.034,0.926c-0.062,0.193-0.31,0.446-0.549,0.69C18.484,7.001,18,7.494,18,8.169s0.484,1.168,0.912,1.604
		c0.239,0.244,0.487,0.497,0.549,0.69c0.069,0.211,0.017,0.575-0.034,0.926c-0.085,0.592-0.182,1.263,0.201,1.789
		c0.386,0.531,1.058,0.646,1.65,0.747c0.347,0.06,0.705,0.121,0.88,0.248c0.171,0.125,0.337,0.443,0.499,0.751
		c0.28,0.537,0.597,1.145,1.229,1.35c0.132,0.043,0.272,0.064,0.417,0.064h0c0.465,0,0.903-0.216,1.327-0.425
		c0.114-0.056,0.228-0.11,0.339-0.16v10.714c-1.326-2.186-3.721-3.653-6.458-3.653c-0.304,0-0.55,0.246-0.55,0.551v5.006
		c0,4.168,3.391,7.559,7.558,7.559s7.558-3.391,7.558-7.559v-5.006c0-0.305-0.246-0.551-0.55-0.551
		c-2.737,0-5.133,1.468-6.458,3.653V15.753c0.111,0.05,0.226,0.104,0.34,0.161c0.424,0.208,0.862,0.424,1.327,0.424
		c0.145,0,0.285-0.022,0.417-0.064c0.632-0.206,0.949-0.814,1.229-1.351c0.16-0.308,0.327-0.627,0.498-0.751
		c0.175-0.127,0.533-0.189,0.88-0.249c0.593-0.101,1.265-0.216,1.651-0.746c0.383-0.526,0.286-1.198,0.2-1.79
		c-0.05-0.351-0.103-0.714-0.034-0.925C33.642,10.27,33.89,10.018,34.129,9.773z M32.525,11.545
		c0.056,0.385,0.118,0.821-0.002,0.986c-0.123,0.169-0.562,0.244-0.946,0.311c-0.472,0.081-0.96,0.164-1.344,0.443
		c-0.378,0.276-0.605,0.71-0.824,1.131c-0.184,0.35-0.391,0.747-0.595,0.814c-0.177,0.057-0.563-0.126-0.919-0.301
		c-0.436-0.215-0.887-0.437-1.375-0.437c-0.487,0-0.938,0.222-1.374,0.437c-0.355,0.175-0.739,0.359-0.92,0.301
		c-0.204-0.067-0.412-0.463-0.594-0.813c-0.219-0.421-0.446-0.855-0.825-1.132c-0.383-0.279-0.871-0.362-1.342-0.442
		c-0.386-0.066-0.823-0.141-0.946-0.311c-0.12-0.165-0.058-0.601-0.002-0.985c0.068-0.476,0.139-0.968-0.009-1.423
		c-0.143-0.439-0.482-0.785-0.811-1.12c-0.28-0.285-0.597-0.608-0.597-0.834s0.317-0.549,0.597-0.834
		c0.329-0.334,0.668-0.681,0.811-1.12c0.148-0.455,0.077-0.947,0.009-1.423c-0.056-0.384-0.118-0.82,0.002-0.985
		c0.123-0.169,0.561-0.244,0.946-0.31c0.472-0.081,0.959-0.164,1.342-0.443c0.38-0.276,0.607-0.71,0.827-1.131
		c0.183-0.35,0.391-0.747,0.595-0.813c0.177-0.057,0.564,0.127,0.918,0.301c0.436,0.215,0.887,0.437,1.375,0.437
		c0.488,0,0.94-0.222,1.375-0.437c0.355-0.175,0.739-0.358,0.919-0.301c0.204,0.067,0.412,0.464,0.595,0.814
		c0.219,0.42,0.446,0.855,0.824,1.131c0.384,0.279,0.871,0.362,1.343,0.442c0.386,0.066,0.823,0.141,0.947,0.31
		c0.12,0.165,0.058,0.601,0.002,0.986c-0.069,0.476-0.14,0.967,0.008,1.422c0.143,0.439,0.482,0.785,0.812,1.12
		c0.279,0.285,0.596,0.608,0.596,0.834s-0.316,0.549-0.596,0.834c-0.329,0.334-0.669,0.681-0.812,1.12
		C32.386,10.578,32.456,11.07,32.525,11.545z M32.979,23.938v4.434c0,3.375-2.604,6.151-5.909,6.43v-4.428
		C27.07,26.997,29.674,24.217,32.979,23.938z M20.062,23.938c3.305,0.279,5.909,3.06,5.909,6.436v4.428
		c-3.304-0.279-5.909-3.055-5.909-6.43V23.938z"/>
	<path fill="#8DC63F" d="M26.52,5.146c-1.667,0-3.023,1.357-3.023,3.023c0,1.667,1.357,3.023,3.023,3.023s3.024-1.356,3.024-3.023
		C29.544,6.503,28.187,5.146,26.52,5.146z M26.52,10.093c-1.061,0-1.924-0.863-1.924-1.924s0.863-1.924,1.924-1.924
		c1.061,0,1.924,0.863,1.924,1.924S27.581,10.093,26.52,10.093z"/>
</g>
<g>
	<path fill="#8DC63F" d="M52.129,9.773c0.427-0.436,0.911-0.929,0.911-1.604s-0.484-1.168-0.911-1.604
		c-0.239-0.244-0.487-0.497-0.55-0.689c-0.068-0.212-0.016-0.575,0.034-0.926c0.085-0.592,0.183-1.263-0.2-1.79
		c-0.388-0.53-1.059-0.646-1.652-0.746c-0.346-0.06-0.704-0.121-0.879-0.248c-0.171-0.124-0.337-0.443-0.498-0.751
		c-0.28-0.537-0.598-1.145-1.23-1.351C47.022,0.022,46.882,0,46.737,0c-0.465,0-0.903,0.216-1.327,0.425
		C45.086,0.584,44.752,0.75,44.52,0.75c-0.23,0-0.565-0.165-0.888-0.324C43.207,0.217,42.77,0,42.304,0
		c-0.146,0-0.285,0.022-0.416,0.064c-0.632,0.206-0.95,0.813-1.229,1.35c-0.162,0.308-0.328,0.627-0.5,0.751
		c-0.175,0.128-0.533,0.189-0.88,0.249c-0.593,0.101-1.264,0.216-1.649,0.746c-0.383,0.525-0.287,1.196-0.201,1.789
		c0.051,0.351,0.103,0.714,0.033,0.926c-0.062,0.193-0.311,0.446-0.549,0.69C36.484,7.001,36,7.494,36,8.169
		s0.484,1.168,0.912,1.604c0.238,0.244,0.486,0.497,0.549,0.69c0.069,0.211,0.018,0.575-0.033,0.926
		c-0.086,0.592-0.182,1.263,0.201,1.789c0.386,0.531,1.057,0.646,1.65,0.747c0.346,0.06,0.704,0.121,0.879,0.248
		c0.172,0.125,0.338,0.443,0.499,0.751c0.28,0.537,0.597,1.145,1.229,1.35c0.132,0.043,0.272,0.064,0.417,0.064h0.001
		c0.465,0,0.903-0.216,1.327-0.425c0.114-0.056,0.229-0.11,0.34-0.16v10.714c-1.326-2.186-3.721-3.653-6.459-3.653
		c-0.304,0-0.55,0.246-0.55,0.551v5.006c0,4.168,3.391,7.559,7.558,7.559c4.168,0,7.559-3.391,7.559-7.559v-5.006
		c0-0.305-0.246-0.551-0.55-0.551c-2.737,0-5.133,1.468-6.458,3.653V15.753c0.111,0.05,0.226,0.104,0.34,0.161
		c0.424,0.208,0.862,0.424,1.327,0.424c0.145,0,0.285-0.022,0.417-0.064c0.632-0.206,0.949-0.814,1.229-1.351
		c0.16-0.308,0.327-0.627,0.498-0.751c0.175-0.127,0.533-0.189,0.88-0.249c0.593-0.101,1.265-0.216,1.651-0.746
		c0.383-0.526,0.286-1.198,0.2-1.79c-0.05-0.351-0.103-0.714-0.034-0.925C51.642,10.27,51.89,10.018,52.129,9.773z M50.525,11.545
		c0.056,0.385,0.118,0.821-0.002,0.986c-0.123,0.169-0.562,0.244-0.946,0.311c-0.472,0.081-0.96,0.164-1.344,0.443
		c-0.378,0.276-0.605,0.71-0.824,1.131c-0.184,0.35-0.391,0.747-0.595,0.814c-0.177,0.057-0.563-0.126-0.919-0.301
		c-0.436-0.215-0.888-0.437-1.376-0.437c-0.486,0-0.938,0.222-1.373,0.437c-0.355,0.175-0.739,0.359-0.921,0.301
		c-0.204-0.067-0.411-0.463-0.595-0.813c-0.219-0.421-0.445-0.855-0.824-1.132c-0.384-0.279-0.871-0.362-1.343-0.442
		c-0.386-0.066-0.823-0.141-0.946-0.311c-0.12-0.165-0.058-0.601-0.002-0.985c0.068-0.476,0.139-0.968-0.009-1.423
		c-0.143-0.439-0.482-0.785-0.812-1.12C37.416,8.719,37.1,8.396,37.1,8.169s0.316-0.549,0.596-0.834
		c0.329-0.334,0.669-0.681,0.812-1.12c0.147-0.455,0.077-0.947,0.009-1.423c-0.056-0.384-0.118-0.82,0.002-0.985
		c0.123-0.169,0.561-0.244,0.945-0.31c0.473-0.081,0.96-0.164,1.342-0.443c0.381-0.276,0.607-0.71,0.827-1.131
		c0.183-0.35,0.391-0.747,0.595-0.813c0.178-0.057,0.564,0.127,0.919,0.301c0.437,0.215,0.888,0.437,1.374,0.437
		c0.488,0,0.94-0.222,1.376-0.437c0.355-0.175,0.739-0.358,0.919-0.301c0.204,0.067,0.412,0.464,0.595,0.814
		c0.219,0.42,0.446,0.855,0.824,1.131c0.384,0.279,0.871,0.362,1.343,0.442c0.386,0.066,0.823,0.141,0.947,0.31
		c0.12,0.165,0.058,0.601,0.002,0.986c-0.069,0.476-0.14,0.967,0.008,1.422c0.143,0.439,0.482,0.785,0.812,1.12
		c0.279,0.285,0.596,0.608,0.596,0.834s-0.316,0.549-0.596,0.834c-0.329,0.334-0.669,0.681-0.812,1.12
		C50.386,10.578,50.456,11.07,50.525,11.545z M50.979,23.938v4.434c0,3.375-2.604,6.151-5.908,6.43v-4.428
		C45.07,26.997,47.674,24.217,50.979,23.938z M38.062,23.938c3.305,0.279,5.909,3.06,5.909,6.436v4.428
		c-3.305-0.279-5.909-3.055-5.909-6.43V23.938z"/>
	<path fill="#8DC63F" d="M44.52,5.146c-1.666,0-3.023,1.357-3.023,3.023c0,1.667,1.357,3.023,3.023,3.023
		c1.667,0,3.024-1.356,3.024-3.023C47.544,6.503,46.187,5.146,44.52,5.146z M44.52,10.093c-1.061,0-1.924-0.863-1.924-1.924
		s0.863-1.924,1.924-1.924c1.062,0,1.925,0.863,1.925,1.924S45.581,10.093,44.52,10.093z"/>
</g>
<g>
	<path fill="#8DC63F" d="M70.129,9.773c0.427-0.436,0.911-0.929,0.911-1.604S70.556,7,70.129,6.565
		c-0.239-0.244-0.487-0.497-0.55-0.689c-0.068-0.212-0.016-0.575,0.034-0.926c0.085-0.592,0.183-1.263-0.2-1.79
		c-0.388-0.53-1.059-0.646-1.652-0.746c-0.346-0.06-0.704-0.121-0.879-0.248c-0.171-0.124-0.337-0.443-0.498-0.751
		c-0.28-0.537-0.598-1.145-1.23-1.351C65.022,0.022,64.882,0,64.737,0c-0.465,0-0.903,0.216-1.327,0.425
		c-0.324,0.159-0.658,0.324-0.891,0.324c-0.23,0-0.565-0.165-0.888-0.324C61.207,0.216,60.77,0,60.304,0
		c-0.146,0-0.285,0.022-0.416,0.064c-0.632,0.206-0.95,0.813-1.229,1.35c-0.162,0.308-0.328,0.627-0.5,0.751
		c-0.175,0.128-0.533,0.189-0.88,0.249c-0.593,0.101-1.264,0.216-1.649,0.746c-0.383,0.525-0.287,1.196-0.201,1.789
		c0.051,0.351,0.103,0.714,0.033,0.926c-0.062,0.193-0.311,0.446-0.549,0.69C54.484,7,54,7.494,54,8.169s0.484,1.168,0.912,1.604
		c0.238,0.244,0.486,0.497,0.549,0.69c0.069,0.211,0.018,0.575-0.033,0.926c-0.086,0.592-0.182,1.263,0.201,1.789
		c0.386,0.531,1.057,0.646,1.65,0.747c0.346,0.06,0.704,0.121,0.879,0.248c0.172,0.125,0.338,0.443,0.499,0.751
		c0.28,0.537,0.597,1.145,1.229,1.35c0.132,0.043,0.272,0.064,0.417,0.064h0.001c0.465,0,0.903-0.216,1.327-0.425
		c0.114-0.056,0.229-0.11,0.34-0.16v10.714c-1.326-2.186-3.721-3.652-6.459-3.652c-0.304,0-0.55,0.246-0.55,0.551v5.006
		c0,4.168,3.391,7.559,7.558,7.559c4.168,0,7.559-3.391,7.559-7.559v-5.006c0-0.305-0.246-0.551-0.55-0.551
		c-2.737,0-5.133,1.467-6.458,3.652V15.753c0.111,0.05,0.226,0.104,0.34,0.161c0.424,0.208,0.862,0.424,1.327,0.424
		c0.145,0,0.285-0.022,0.417-0.064c0.632-0.206,0.949-0.814,1.229-1.351c0.16-0.308,0.327-0.627,0.498-0.751
		c0.175-0.127,0.533-0.189,0.88-0.249c0.593-0.101,1.265-0.216,1.651-0.746c0.383-0.526,0.286-1.198,0.2-1.79
		c-0.05-0.351-0.103-0.714-0.034-0.925C69.642,10.27,69.89,10.017,70.129,9.773z M68.525,11.544
		c0.056,0.385,0.118,0.821-0.002,0.986c-0.123,0.169-0.562,0.244-0.946,0.311c-0.472,0.081-0.96,0.164-1.344,0.443
		c-0.378,0.276-0.605,0.71-0.824,1.131c-0.184,0.35-0.391,0.747-0.595,0.814c-0.177,0.057-0.563-0.126-0.919-0.301
		c-0.436-0.215-0.888-0.437-1.376-0.437c-0.486,0-0.938,0.222-1.373,0.437c-0.355,0.175-0.739,0.359-0.921,0.301
		c-0.204-0.067-0.411-0.463-0.595-0.813c-0.219-0.421-0.445-0.855-0.824-1.132c-0.384-0.279-0.871-0.362-1.343-0.442
		c-0.386-0.066-0.823-0.141-0.946-0.311c-0.12-0.165-0.058-0.601-0.002-0.985c0.068-0.476,0.139-0.968-0.009-1.423
		c-0.143-0.439-0.482-0.785-0.812-1.12C55.416,8.718,55.1,8.395,55.1,8.169s0.316-0.549,0.596-0.834
		c0.329-0.334,0.669-0.681,0.812-1.12c0.147-0.455,0.077-0.947,0.009-1.423c-0.056-0.384-0.118-0.82,0.002-0.985
		c0.123-0.169,0.561-0.244,0.945-0.31c0.473-0.081,0.96-0.164,1.342-0.443c0.381-0.276,0.607-0.71,0.827-1.131
		c0.183-0.35,0.391-0.747,0.595-0.813c0.178-0.057,0.564,0.127,0.919,0.301c0.437,0.215,0.888,0.437,1.374,0.437
		c0.488,0,0.94-0.222,1.376-0.437c0.355-0.175,0.739-0.358,0.919-0.301c0.204,0.067,0.412,0.464,0.595,0.814
		c0.219,0.42,0.446,0.855,0.824,1.131c0.384,0.279,0.871,0.362,1.343,0.442c0.386,0.066,0.823,0.141,0.947,0.31
		c0.12,0.165,0.058,0.601,0.002,0.986c-0.069,0.476-0.14,0.967,0.008,1.422c0.143,0.439,0.482,0.785,0.812,1.12
		c0.279,0.285,0.596,0.608,0.596,0.834s-0.316,0.549-0.596,0.834c-0.329,0.334-0.669,0.681-0.812,1.12
		C68.386,10.578,68.456,11.069,68.525,11.544z M68.979,23.938v4.434c0,3.375-2.604,6.151-5.908,6.43v-4.428
		C63.07,26.996,65.674,24.217,68.979,23.938z M56.062,23.938c3.305,0.279,5.909,3.059,5.909,6.436v4.428
		c-3.305-0.279-5.909-3.055-5.909-6.43V23.938z"/>
	<path fill="#8DC63F" d="M62.52,5.146c-1.666,0-3.023,1.357-3.023,3.023c0,1.667,1.357,3.023,3.023,3.023
		c1.667,0,3.024-1.356,3.024-3.023C65.544,6.502,64.187,5.146,62.52,5.146z M62.52,10.093c-1.061,0-1.924-0.863-1.924-1.924
		s0.863-1.924,1.924-1.924c1.062,0,1.925,0.863,1.925,1.924S63.581,10.093,62.52,10.093z"/>
</g>
</svg>
