<?xml version="1.0" encoding="utf-8"?>
<!-- Generator: Adobe Illustrator 16.0.0, SVG Export Plug-In . SVG Version: 6.00 Build 0)  -->
<!DOCTYPE svg PUBLIC "-//W3C//DTD SVG 1.1//EN" "http://www.w3.org/Graphics/SVG/1.1/DTD/svg11.dtd">
<svg version="1.1" id="Layer_1" xmlns="http://www.w3.org/2000/svg" xmlns:xlink="http://www.w3.org/1999/xlink" x="0px" y="0px"
	 width="71.75px" height="38px" viewBox="0 0 71.75 38" enable-background="new 0 0 71.75 38" xml:space="preserve">
<g>
	<path fill="#FFF200" d="M0.609,4.732C0.205,5.69,0,6.706,0,7.75s0.205,2.06,0.609,3.017c0.39,0.923,0.948,1.751,1.659,2.463
		c0.656,0.655,1.413,1.173,2.246,1.557C4.668,20.167,9.083,24.5,14.5,24.5h12.55c0.47,4.717,4.233,8.478,8.95,8.948V36h-3.5
		c-0.553,0-1,0.447-1,1s0.447,1,1,1H37h22.5H64c0.553,0,1-0.447,1-1s-0.447-1-1-1h-3.5v-2.5H64c4.273,0,7.75-3.477,7.75-7.75
		c0-3.95-2.973-7.213-6.797-7.686C64.467,10.506,58.18,4.5,50.5,4.5H47V2h21.5c0.553,0,1-0.447,1-1s-0.447-1-1-1H46H23.5
		c-0.553,0-1,0.447-1,1s0.447,1,1,1H45v2.551C37.804,5.045,32.045,10.804,31.551,18H14.5c-1.839,0-3.335-1.431-3.473-3.234
		c0.816-0.381,1.559-0.892,2.202-1.534c0.713-0.714,1.271-1.542,1.661-2.464C15.295,9.81,15.5,8.794,15.5,7.75
		s-0.205-2.06-0.609-3.017c-0.39-0.923-0.948-1.751-1.659-2.463c-0.714-0.713-1.542-1.271-2.464-1.661
		c-1.916-0.809-4.12-0.809-6.034,0c-0.923,0.39-1.751,0.948-2.463,1.659C1.558,2.982,0.999,3.811,0.609,4.732z M45,6.551V18H33.551
		C34.037,11.905,38.905,7.037,45,6.551z M47,6.5h2.5V18H47V6.5z M62.949,18H51.5V6.551C57.595,7.037,62.463,11.905,62.949,18z
		 M38,36v-2.5h20.5V36H38z M6.554,15.398C6.948,15.46,7.346,15.5,7.75,15.5c0.449,0,0.891-0.046,1.327-0.121
		C9.5,17.994,11.768,20,14.5,20h18H46h4.5H64c3.171,0,5.75,2.579,5.75,5.75S67.171,31.5,64,31.5h-4.5H37c-4.411,0-8-3.589-8-8
		c0-0.553-0.447-1-1-1H14.5C10.393,22.5,7.003,19.388,6.554,15.398z M2,7.75c0-0.775,0.152-1.529,0.451-2.239
		C2.74,4.828,3.155,4.213,3.685,3.683C4.213,3.155,4.828,2.74,5.512,2.451C6.221,2.152,6.975,2,7.75,2s1.529,0.152,2.239,0.451
		c0.683,0.289,1.298,0.704,1.828,1.233c0.527,0.528,0.942,1.144,1.231,1.827C13.348,6.221,13.5,6.975,13.5,7.75
		s-0.152,1.529-0.451,2.239c-0.289,0.683-0.704,1.298-1.233,1.828c-0.528,0.527-1.144,0.942-1.827,1.231
		c-1.418,0.598-3.058,0.598-4.478,0c-0.683-0.289-1.298-0.704-1.828-1.233c-0.527-0.528-0.942-1.144-1.231-1.827
		C2.152,9.279,2,8.525,2,7.75z"/>
	<path fill="#FFF200" d="M50.5,22.5H55c0.553,0,1,0.447,1,1s-0.447,1-1,1h-4.5c-0.553,0-1-0.447-1-1S49.947,22.5,50.5,22.5z"/>
</g>
</svg>
