<?xml version="1.0" encoding="utf-8"?>
<!-- Generator: Adobe Illustrator 16.0.0, SVG Export Plug-In . SVG Version: 6.00 Build 0)  -->
<!DOCTYPE svg PUBLIC "-//W3C//DTD SVG 1.1//EN" "http://www.w3.org/Graphics/SVG/1.1/DTD/svg11.dtd">
<svg version="1.1" id="Layer_1" xmlns="http://www.w3.org/2000/svg" xmlns:xlink="http://www.w3.org/1999/xlink" x="0px" y="0px"
	 width="71.75px" height="47px" viewBox="0 0 71.75 47" enable-background="new 0 0 71.75 47" xml:space="preserve">
<g>
	<path fill="#2B3990" d="M0,1v13.5C0,22.495,6.505,29,14.5,29H36v17c0,0.553,0.447,1,1,1h4.5c0.352,0,0.677-0.185,0.857-0.485
		L52.97,28.827C53.126,28.927,53.301,29,53.5,29H64c4.273,0,7.75-3.477,7.75-7.75c0-3.964-2.993-7.237-6.837-7.691
		C64.465,10.975,62.211,9,59.5,9H10.618L6.395,0.553C6.225,0.214,5.879,0,5.5,0H1C0.447,0,0,0.447,0,1z M38,28v-3.5h15.233
		L40.934,45H38V28z M2,14.5V2h2.882l4.224,8.447C9.275,10.786,9.621,11,10,11h49.5c1.58,0,2.903,1.06,3.337,2.5H59.5
		c-0.553,0-1,0.447-1,1s0.447,1,1,1H64c3.171,0,5.75,2.579,5.75,5.75S67.171,27,64,27h-9.934l1.791-2.985
		c0.186-0.309,0.19-0.693,0.013-1.008C55.692,22.693,55.36,22.5,55,22.5H37c-0.553,0-1,0.447-1,1V27H14.5C7.607,27,2,21.393,2,14.5z
		"/>
	<path fill="#2B3990" d="M50.5,13.5H55c0.553,0,1,0.447,1,1s-0.447,1-1,1h-4.5c-0.553,0-1-0.447-1-1S49.947,13.5,50.5,13.5z"/>
	<path fill="#2B3990" d="M41.5,13.5H46c0.553,0,1,0.447,1,1s-0.447,1-1,1h-4.5c-0.553,0-1-0.447-1-1S40.947,13.5,41.5,13.5z"/>
	<path fill="#2B3990" d="M32.5,13.5H37c0.553,0,1,0.447,1,1s-0.447,1-1,1h-4.5c-0.553,0-1-0.447-1-1S31.947,13.5,32.5,13.5z"/>
	<path fill="#2B3990" d="M23.5,13.5H28c0.553,0,1,0.447,1,1s-0.447,1-1,1h-4.5c-0.553,0-1-0.447-1-1S22.947,13.5,23.5,13.5z"/>
	<path fill="#2B3990" d="M14.5,13.5H19c0.553,0,1,0.447,1,1s-0.447,1-1,1h-4.5c-0.553,0-1-0.447-1-1S13.947,13.5,14.5,13.5z"/>
</g>
</svg>
