<?xml version="1.0" encoding="utf-8"?>
<!-- Generator: Adobe Illustrator 16.0.0, SVG Export Plug-In . SVG Version: 6.00 Build 0)  -->
<!DOCTYPE svg PUBLIC "-//W3C//DTD SVG 1.1//EN" "http://www.w3.org/Graphics/SVG/1.1/DTD/svg11.dtd">
<svg version="1.1" id="Layer_1" xmlns="http://www.w3.org/2000/svg" xmlns:xlink="http://www.w3.org/1999/xlink" x="0px" y="0px"
	 width="80.578px" height="111.438px" viewBox="0 0 80.578 111.438" enable-background="new 0 0 80.578 111.438"
	 xml:space="preserve">
<g>
	<path fill="#888888" d="M78.863,57.434c0.949,0,1.715-0.767,1.715-1.715V40.29c0-0.948-0.766-1.715-1.715-1.715H49.719v-6
		c0-0.129-0.047-0.244-0.074-0.365h8.582c0.457,0,0.891-0.181,1.213-0.502l5.635-5.635c0.67-0.67,0.67-1.755,0-2.424l-5.635-5.636
		c-0.322-0.321-0.756-0.502-1.213-0.502h-8.582c0.027-0.121,0.074-0.236,0.074-0.365V1.714c0-0.594-0.309-1.145-0.813-1.458
		c-0.506-0.315-1.138-0.34-1.668-0.076l-15.43,7.715C31.227,8.187,30.86,8.78,30.86,9.43v7.715c0,0.129,0.047,0.244,0.074,0.365
		h-6.503c-0.947,0-1.714,0.767-1.714,1.714v11.271c0,0.947,0.767,1.714,1.714,1.714h6.503c-0.027,0.121-0.074,0.236-0.074,0.365v6
		H9.43c-0.456,0-0.891,0.181-1.212,0.502l-7.715,7.715c-0.67,0.67-0.67,1.755,0,2.424l7.715,7.715
		c0.321,0.321,0.757,0.502,1.212,0.502h21.43v4.286H17.145c-0.948,0-1.714,0.767-1.714,1.714v15.431
		c0,0.947,0.767,1.715,1.714,1.715H30.86v27.43h-4.286V94.294c0-0.947-0.767-1.714-1.714-1.714s-1.714,0.767-1.714,1.714v13.715h-6
		c-0.948,0-1.714,0.768-1.714,1.715s0.767,1.715,1.714,1.715h7.715h7.715h15.43h7.715h7.715c0.949,0,1.715-0.768,1.715-1.715
		s-0.766-1.715-1.715-1.715h-6v-6c0-0.947-0.767-1.714-1.715-1.714c-0.947,0-1.714,0.767-1.714,1.714v6h-4.286v-27.43h13.715
		c0.455,0,0.891-0.182,1.213-0.503l7.715-7.715c0.67-0.67,0.67-1.754,0-2.424l-7.715-7.715c-0.322-0.322-0.758-0.503-1.213-0.503
		H49.719v-4.286H78.863z M34.289,17.145v-6.655l12.001-6v12.656c0,0.129,0.047,0.244,0.073,0.365H34.215
		C34.242,17.389,34.289,17.273,34.289,17.145z M26.145,28.781v-7.842h31.373l3.922,3.921l-3.922,3.921H26.145z M34.215,32.209
		h12.148c-0.026,0.121-0.073,0.236-0.073,0.365v6H34.289v-6C34.289,32.445,34.242,32.33,34.215,32.209z M10.139,54.005l-6-6l6-6
		h22.435h15.43H77.15v12.001H48.004h-15.43H10.139z M46.29,108.009H34.289v-27.43H46.29V108.009z M62.725,65.148l6,6.001l-6,6.001
		H48.004h-15.43H18.859V65.148h13.715h15.43H62.725z M46.29,61.72H34.289v-4.286H46.29V61.72z"/>
</g>
</svg>
